<svg width="151" height="116" viewBox="0 0 151 116" fill="none" xmlns="http://www.w3.org/2000/svg">
<g clip-path="url(#clip0_164633_182665)">
<path d="M151 68.0495L68.3101 116L0 76.3839L82.6899 28.4458L151 68.0495Z" fill="#CCC6BA"/>
<g style="mix-blend-mode:multiply">
<path d="M91.1376 92.6191L90.188 81.1145L84.367 80.6191L65.7079 86.1424L61.8848 93.9194L66.5218 98.5015H75.9439L77.7321 95.4055H81.2716L80.5439 92.6191H91.1376Z" fill="#CCC6BA"/>
</g>
<g style="mix-blend-mode:multiply">
<path d="M63.4634 94.5758C63.5004 94.0804 63.1181 93.8204 62.4645 93.8328H58.851L55.1636 91.2074C55.4842 90.7987 55.6939 90.4148 55.7309 90.0928C55.7679 89.5975 55.3856 89.3374 54.732 89.3498L37.9103 89.3746C37.269 89.3746 36.3564 89.6222 35.3328 90.1176C33.2733 91.1083 31.5344 92.7058 31.4481 93.7089C31.3987 94.2786 31.9167 94.5139 32.743 94.4272C32.6443 94.4272 32.5333 94.4519 32.447 94.4519H43.4353C43.312 94.4891 43.1887 94.5386 43.0653 94.6006C41.0058 95.5913 39.2669 97.1888 39.1806 98.1919C39.1313 98.7616 39.6492 98.9968 40.4755 98.9102C40.3768 98.9102 40.2659 98.9349 40.1795 98.9349L54.732 98.9102L58.962 101.362H61.8972L62.7605 96.6315L62.3165 96.3095C62.9824 95.678 63.4141 95.0588 63.4511 94.5758H63.4634Z" fill="#CCC6BA"/>
</g>
<g style="mix-blend-mode:multiply">
<path d="M79.3229 54.8854C80.1492 50.613 75.7835 49.226 68.6676 50.7492C66.6204 51.1826 64.6718 51.5913 61.7983 52.1362C58.1726 52.8173 55.4594 53.2508 55.4347 53.2508C53.1409 53.6099 51.1677 53.9071 49.4781 54.1176C47.8255 54.3158 45.6427 54.5758 44.0271 54.7492C43.1638 54.8483 42.0169 54.9473 41.1659 55.0093C39.686 55.1331 38.0951 55.2446 36.3069 55.3436L1.07275 75.7647C2.13336 75.7647 3.16929 75.7771 4.18056 75.7895C9.97687 75.8885 13.4053 76.1734 16.0075 76.4334C16.6858 76.5077 17.5861 76.6068 18.2274 76.6935C19.4483 76.8669 21.0269 77.1269 22.1984 77.3374C23.4564 77.5604 24.9239 77.9195 26.1079 78.2167C26.1202 78.2167 27.8344 78.613 29.9926 79.3436C31.7932 79.9628 78.1267 61.065 79.3229 54.873V54.8854Z" fill="#CCC6BA"/>
</g>
<path d="M89.5468 49.9566L89.0412 47.356C89.7195 50.7987 87.7339 54.3777 83.1339 56.9783C75.241 61.4241 62.6248 61.3003 54.9416 56.6935C50.5882 54.0805 48.763 50.5882 49.4413 47.2446C49.2686 48.1114 49.096 48.9783 48.9233 49.8452C48.2327 53.2755 50.1073 56.8545 54.5716 59.5418C62.4398 64.2724 75.389 64.3963 83.4915 59.839C88.2149 57.1765 90.2498 53.4984 89.5592 49.969L89.5468 49.9566Z" fill="url(#paint0_linear_164633_182665)"/>
<path d="M83.5285 40.582C75.8577 35.9752 63.2291 35.8514 55.3363 40.2972C47.4434 44.743 47.2584 52.0867 54.9416 56.6935C62.6125 61.3003 75.241 61.4241 83.1339 56.9783C91.0267 52.5325 91.2117 45.1888 83.5285 40.582Z" fill="#5F5F64"/>
<path d="M80.7043 28.3592C80.7536 26.6502 79.6807 24.9288 77.4732 23.6037C73.0704 20.966 65.8312 20.8917 61.3052 23.4427C58.962 24.7678 57.8027 26.5387 57.8397 28.2972C57.7534 24.5573 57.6547 20.8174 57.5684 17.0774C57.5684 16.7678 57.5561 16.3592 57.5437 16.0619C57.5314 15.4551 57.5067 14.6378 57.4944 14.0186C57.4944 13.709 57.4821 13.3003 57.4697 13.0031L57.3957 9.94429C57.3834 9.33748 57.3587 8.52014 57.3464 7.90095C57.2971 6.05575 58.518 4.19816 60.9722 2.81117C65.7202 0.136244 73.3048 0.210547 77.9171 2.98454C80.2357 4.37154 81.3579 6.17959 81.3086 7.97525C81.1113 14.774 80.9016 21.5728 80.7043 28.3715V28.3592Z" fill="url(#paint1_linear_164633_182665)"/>
<path d="M80.4578 7.85142C80.4578 6.21674 79.4219 4.59445 77.313 3.33129C73.0336 0.755442 65.9917 0.693523 61.589 3.1703C59.3444 4.43346 58.2222 6.10529 58.2222 7.7895V7.25699C58.2222 5.57278 59.3568 3.90095 61.589 2.6378C65.9917 0.161015 73.0336 0.222934 77.313 2.79879C79.4219 4.06194 80.4701 5.69662 80.4578 7.31891C80.4578 7.4799 80.4578 7.69043 80.4578 7.85142Z" fill="url(#paint2_linear_164633_182665)"/>
<path d="M87.549 44.904C87.0187 43.8019 86.5254 42.7616 85.8594 41.1641C85.0208 39.1579 84.5028 37.5852 84.5028 37.5604C84.0712 36.2229 83.7012 35.0836 83.4422 34.0434C83.1956 33.0403 82.8873 31.7028 82.6776 30.6873C82.5666 30.1424 82.4433 29.4242 82.357 28.8793C82.024 26.6749 81.691 24.0495 81.6047 19.9009C81.5307 16.7678 81.6047 13.3994 81.8637 7.49227C81.7773 9.32509 80.5194 11.1455 78.0652 12.5201C73.1075 15.3189 65.1654 15.2322 60.3433 12.3344C58.0495 10.9598 56.8655 9.18887 56.8039 7.41797C57.0012 12.9164 57.0875 16.3344 57.0012 19.7771C56.8779 23.9752 56.5326 26.6502 56.2119 28.7059C56.1256 29.2508 56.0023 29.9691 55.8913 30.5016C55.6693 31.5047 55.361 32.8545 55.1143 33.8452C54.843 34.9226 54.399 36.2601 54.0414 37.3375C54.0414 37.3499 53.5234 38.9102 52.6231 41.0527C51.8708 42.8359 51.1555 44.2972 50.9089 44.7802C49.0837 48.4706 50.6129 52.6316 55.5583 55.5914C62.8962 60 74.9698 60.1239 82.5173 55.8638C87.7216 52.9288 89.4235 48.6811 87.5613 44.8793L87.549 44.904Z" fill="url(#paint3_linear_164633_182665)"/>
<path d="M78.0653 12.5325C73.1076 15.3313 65.1654 15.2446 60.3434 12.3468C55.5214 9.44892 55.6324 4.82972 60.59 2.04334C65.5477 -0.755417 73.4899 -0.66873 78.3119 2.2291C83.134 5.12694 83.023 9.73375 78.0653 12.5325ZM77.0787 11.9381C81.4814 9.4613 81.5801 5.36223 77.3007 2.78638C73.0213 0.210527 65.9794 0.148607 61.5767 2.62539C57.1739 5.10217 57.0753 9.20124 61.3547 11.7771C65.6341 14.3529 72.676 14.4149 77.0787 11.9381Z" fill="#F2ECDD"/>
<path d="M59.4553 67.4056L58.9496 64.8049C59.6279 68.2477 57.6424 71.8266 53.0423 74.4272C45.1495 78.873 32.5333 78.7492 24.8501 74.1424C20.4967 71.5294 18.6715 68.0371 19.3497 64.6935C19.1771 65.5604 19.0044 66.4272 18.8318 67.2941C18.1412 70.7244 20.0157 74.3034 24.4801 76.9907C32.3483 81.7213 45.2975 81.8452 53.4 77.2879C58.1233 74.6254 60.1582 70.9473 59.4676 67.4179L59.4553 67.4056Z" fill="url(#paint4_linear_164633_182665)"/>
<path d="M59.0587 66.1477C59.0765 59.746 50.1682 54.5314 39.1616 54.5005C28.1549 54.4696 19.2178 59.6342 19.2 66.0359C19.1822 72.4376 28.0904 77.6522 39.0971 77.6831C50.1038 77.7139 59.0409 72.5494 59.0587 66.1477Z" fill="#5F5F64"/>
<path d="M50.6127 45.8081C50.6621 44.0991 49.5891 42.3777 47.3816 41.0527C42.9789 38.4149 35.7397 38.3406 31.2136 40.8917C28.8704 42.2167 27.7112 43.9876 27.7482 45.7461C27.6618 42.0062 27.5632 38.2663 27.4768 34.5263C27.4768 34.2167 27.4645 33.8081 27.4522 33.5109L27.4028 31.4675C27.4028 31.1579 27.3905 30.7492 27.3782 30.452L27.3042 27.3932C27.2919 26.7864 27.2672 25.9691 27.2549 25.3499C27.2055 23.5047 28.4264 21.6471 30.8806 20.2601C35.6287 17.5852 43.2132 17.6595 47.8256 20.4335C50.1441 21.8205 51.2664 23.6285 51.217 25.4242C51.0197 32.2229 50.8101 39.0217 50.6127 45.8205V45.8081Z" fill="url(#paint5_linear_164633_182665)"/>
<path d="M50.3538 25.3003C50.3538 23.6657 49.3179 22.0434 47.209 20.7802C42.9296 18.2044 35.8877 18.1424 31.485 20.6192C29.2404 21.8824 28.1182 23.5542 28.1182 25.2384V24.7059C28.1182 23.0217 29.2528 21.3499 31.485 20.0867C35.8877 17.6099 42.9296 17.6718 47.209 20.2477C49.3179 21.5109 50.3661 23.1455 50.3538 24.7678C50.3538 24.9288 50.3538 25.1393 50.3538 25.3003Z" fill="url(#paint6_linear_164633_182665)"/>
<path d="M57.4574 62.353C56.9271 61.2508 56.4338 60.2105 55.7679 58.613C54.9292 56.6068 54.4113 55.0341 54.4113 55.0093C53.9796 53.6718 53.6096 52.5325 53.3507 51.4923C53.104 50.4892 52.7957 49.1517 52.586 48.1362C52.4751 47.5913 52.3517 46.8731 52.2654 46.3282C51.9324 44.1238 51.5994 41.4985 51.5131 37.3499C51.4391 34.2167 51.5131 30.8483 51.7721 24.9412C51.6858 26.774 50.4279 28.5944 47.9737 29.9691C43.016 32.7678 35.0738 32.6811 30.2518 29.7833C27.9579 28.4087 26.774 26.6378 26.7123 24.8669C26.9096 30.3653 26.996 33.7833 26.9096 37.226C26.7863 41.4242 26.441 44.0991 26.1204 46.1548C26.034 46.6997 25.9107 47.418 25.7997 47.9505C25.5777 48.9536 25.2694 50.3034 25.0228 51.2941C24.7514 52.3715 24.3075 53.709 23.9498 54.7864C23.9498 54.7988 23.4319 56.3591 22.5316 58.5016C21.7793 60.2848 21.064 61.7461 20.8173 62.2291C18.9921 65.9195 20.5214 70.0805 25.4667 73.0403C32.8046 77.4489 44.8782 77.5728 52.4257 73.3127C57.6301 70.3777 59.332 66.13 57.4697 62.3282L57.4574 62.353Z" fill="url(#paint7_linear_164633_182665)"/>
<path d="M47.9737 29.9814C43.0161 32.7802 35.0739 32.6935 30.2518 29.7957C25.4298 26.8978 25.5408 22.2786 30.4985 19.4923C35.4562 16.6935 43.3984 16.7802 48.2204 19.678C53.0424 22.5759 52.9314 27.1827 47.9737 29.9814ZM46.9871 29.387C51.3899 26.9102 51.4885 22.8111 47.2091 20.2353C42.9297 17.6594 35.8878 17.5975 31.4851 20.0743C27.0824 22.5511 26.9837 26.6502 31.2631 29.226C35.5425 31.8019 42.5844 31.8638 46.9871 29.387Z" fill="#F2ECDD"/>
<path d="M100.338 47.0217V60.5449L117.431 70.4892V56.9536L100.338 47.0217Z" fill="#3B3B3F"/>
<path d="M117.431 56.9536V70.4892L127.581 64.6068V51.0712L117.431 56.9536Z" fill="#48484D"/>
<path d="M100.338 47.0217L117.431 56.9536L127.581 51.0712L110.488 41.127L100.338 47.0217Z" fill="#5F5F64"/>
<path d="M115.729 8.11146C116.629 8.63158 118.072 8.63158 118.972 8.11146C119.429 7.8514 119.651 7.50465 119.651 7.1579V51.1208C119.651 51.4675 119.429 51.8019 118.972 52.0743C118.072 52.5944 116.617 52.5944 115.729 52.0743C115.285 51.8143 115.063 51.4799 115.063 51.1331V7.18267C115.063 7.51703 115.285 7.86378 115.729 8.12384V8.11146Z" fill="url(#paint8_linear_164633_182665)"/>
<path d="M115.741 6.22908C114.841 6.74921 114.841 7.59131 115.729 8.11143C116.629 8.63156 118.072 8.63156 118.972 8.11143C119.873 7.59131 119.873 6.74921 118.972 6.22908C118.084 5.70896 116.629 5.70896 115.729 6.22908H115.741Z" fill="#F2ECDD"/>
<path opacity="0.9" d="M116.062 6.41485C115.347 6.8359 115.334 7.50463 116.062 7.92569C116.777 8.34674 117.936 8.34674 118.664 7.92569C119.379 7.50463 119.392 6.8359 118.664 6.41485C117.949 5.9938 116.789 5.9938 116.074 6.41485H116.062Z" fill="url(#paint9_linear_164633_182665)"/>
<path d="M115.063 13.3622C115.063 13.6965 115.285 14.0433 115.729 14.3034C116.629 14.8235 118.072 14.8235 118.972 14.3034C119.429 14.0433 119.651 13.6965 119.651 13.3498V11.6656C119.651 12.0123 119.429 12.3467 118.972 12.6191C118.072 13.1393 116.617 13.1393 115.729 12.6191C115.285 12.3591 115.063 12.0247 115.063 11.678V13.3622ZM115.063 17.8575C115.063 18.1919 115.285 18.5387 115.729 18.7987C116.629 19.3188 118.072 19.3188 118.972 18.7987C119.429 18.5387 119.651 18.1919 119.651 17.8452V16.1609C119.651 16.5077 119.429 16.8421 118.972 17.1145C118.072 17.6346 116.617 17.6346 115.729 17.1145C115.285 16.8544 115.063 16.5201 115.063 16.1733V17.8575ZM115.063 22.3529C115.063 22.6873 115.285 23.034 115.729 23.2941C116.629 23.8142 118.072 23.8142 118.972 23.2941C119.429 23.034 119.651 22.6873 119.651 22.3405V20.6563C119.651 21.003 119.429 21.3374 118.972 21.6099C118.072 22.13 116.617 22.13 115.729 21.6099C115.285 21.3498 115.063 21.0154 115.063 20.6687V22.3529ZM115.063 26.8483C115.063 27.1826 115.285 27.5294 115.729 27.7894C116.629 28.3096 118.072 28.3096 118.972 27.7894C119.429 27.5294 119.651 27.1826 119.651 26.8359V25.1517C119.651 25.4984 119.429 25.8328 118.972 26.1052C118.072 26.6253 116.617 26.6253 115.729 26.1052C115.285 25.8452 115.063 25.5108 115.063 25.164V26.8483ZM115.063 31.3436C115.063 31.678 115.285 32.0247 115.729 32.2848C116.629 32.8049 118.072 32.8049 118.972 32.2848C119.429 32.0247 119.651 31.678 119.651 31.3312V29.647C119.651 29.9938 119.429 30.3281 118.972 30.6006C118.072 31.1207 116.617 31.1207 115.729 30.6006C115.285 30.3405 115.063 30.0061 115.063 29.6594V31.3436ZM115.063 35.839C115.063 36.1733 115.285 36.5201 115.729 36.7801C116.629 37.3003 118.072 37.3003 118.972 36.7801C119.429 36.5201 119.651 36.1733 119.651 35.8266V34.1424C119.651 34.4891 119.429 34.8235 118.972 35.0959C118.072 35.6161 116.617 35.6161 115.729 35.0959C115.285 34.8359 115.063 34.5015 115.063 34.1548V35.839ZM115.063 40.3343C115.063 40.6687 115.285 41.0154 115.729 41.2755C116.629 41.7956 118.072 41.7956 118.972 41.2755C119.429 41.0154 119.651 40.6687 119.651 40.3219V38.6377C119.651 38.9845 119.429 39.3188 118.972 39.5913C118.072 40.1114 116.617 40.1114 115.729 39.5913C115.285 39.3312 115.063 38.9969 115.063 38.6501V40.3343ZM115.063 44.8297C115.063 45.164 115.285 45.5108 115.729 45.7709C116.629 46.291 118.072 46.291 118.972 45.7709C119.429 45.5108 119.651 45.164 119.651 44.8173V43.1331C119.651 43.4798 119.429 43.8142 118.972 44.0866C118.072 44.6068 116.617 44.6068 115.729 44.0866C115.285 43.8266 115.063 43.4922 115.063 43.1455V44.8297ZM115.063 49.325C115.063 49.6594 115.285 50.0061 115.729 50.2662C116.629 50.7863 118.072 50.7863 118.972 50.2662C119.429 50.0061 119.651 49.6594 119.651 49.3126V47.6284C119.651 47.9752 119.429 48.3096 118.972 48.582C118.072 49.1021 116.617 49.1021 115.729 48.582C115.285 48.3219 115.063 47.9876 115.063 47.6408V49.325Z" fill="url(#paint10_linear_164633_182665)"/>
<path d="M108.021 3.65327C108.921 4.17339 110.364 4.17339 111.265 3.65327C111.721 3.39321 111.943 3.04646 111.943 2.69971V46.6626C111.943 47.0093 111.721 47.3437 111.265 47.6161C110.364 48.1362 108.909 48.1362 108.021 47.6161C107.577 47.3561 107.355 47.0217 107.355 46.6749V2.71209C107.355 3.04646 107.577 3.39321 108.021 3.65327Z" fill="url(#paint11_linear_164633_182665)"/>
<path d="M108.033 1.77089C107.133 2.29102 107.133 3.13312 108.021 3.65324C108.921 4.17337 110.364 4.17337 111.265 3.65324C112.165 3.13312 112.165 2.29102 111.265 1.77089C110.377 1.25077 108.921 1.25077 108.021 1.77089H108.033Z" fill="#F2ECDD"/>
<path opacity="0.9" d="M108.367 1.95666C107.651 2.37771 107.639 3.04644 108.367 3.46749C109.082 3.88855 110.241 3.88855 110.969 3.46749C111.684 3.04644 111.696 2.37771 110.969 1.95666C110.253 1.53561 109.094 1.53561 108.379 1.95666H108.367Z" fill="url(#paint12_linear_164633_182665)"/>
<path d="M107.355 8.90399C107.355 9.23836 107.577 9.58511 108.021 9.84517C108.921 10.3653 110.364 10.3653 111.265 9.84517C111.721 9.58511 111.943 9.23836 111.943 8.89161V7.2074C111.943 7.55415 111.721 7.88851 111.265 8.16096C110.364 8.68108 108.909 8.68108 108.021 8.16096C107.577 7.9009 107.355 7.56653 107.355 7.21978V8.90399ZM107.355 13.3993C107.355 13.7337 107.577 14.0805 108.021 14.3405C108.921 14.8606 110.364 14.8606 111.265 14.3405C111.721 14.0805 111.943 13.7337 111.943 13.387V11.7028C111.943 12.0495 111.721 12.3839 111.265 12.6563C110.364 13.1764 108.909 13.1764 108.021 12.6563C107.577 12.3963 107.355 12.0619 107.355 11.7151V13.3993ZM107.355 17.8947C107.355 18.2291 107.577 18.5758 108.021 18.8359C108.921 19.356 110.364 19.356 111.265 18.8359C111.721 18.5758 111.943 18.2291 111.943 17.8823V16.1981C111.943 16.5449 111.721 16.8792 111.265 17.1517C110.364 17.6718 108.909 17.6718 108.021 17.1517C107.577 16.8916 107.355 16.5572 107.355 16.2105V17.8947ZM107.355 22.3901C107.355 22.7244 107.577 23.0712 108.021 23.3312C108.921 23.8514 110.364 23.8514 111.265 23.3312C111.721 23.0712 111.943 22.7244 111.943 22.3777V20.6935C111.943 21.0402 111.721 21.3746 111.265 21.647C110.364 22.1671 108.909 22.1671 108.021 21.647C107.577 21.387 107.355 21.0526 107.355 20.7058V22.3901ZM107.355 26.8854C107.355 27.2198 107.577 27.5665 108.021 27.8266C108.921 28.3467 110.364 28.3467 111.265 27.8266C111.721 27.5665 111.943 27.2198 111.943 26.873V25.1888C111.943 25.5356 111.721 25.8699 111.265 26.1424C110.364 26.6625 108.909 26.6625 108.021 26.1424C107.577 25.8823 107.355 25.548 107.355 25.2012V26.8854ZM107.355 31.3808C107.355 31.7151 107.577 32.0619 108.021 32.3219C108.921 32.8421 110.364 32.8421 111.265 32.3219C111.721 32.0619 111.943 31.7151 111.943 31.3684V29.6842C111.943 30.0309 111.721 30.3653 111.265 30.6377C110.364 31.1579 108.909 31.1579 108.021 30.6377C107.577 30.3777 107.355 30.0433 107.355 29.6966V31.3808ZM107.355 35.8761C107.355 36.2105 107.577 36.5572 108.021 36.8173C108.921 37.3374 110.364 37.3374 111.265 36.8173C111.721 36.5572 111.943 36.2105 111.943 35.8637V34.1795C111.943 34.5263 111.721 34.8606 111.265 35.1331C110.364 35.6532 108.909 35.6532 108.021 35.1331C107.577 34.873 107.355 34.5387 107.355 34.1919V35.8761ZM107.355 40.3715C107.355 40.7058 107.577 41.0526 108.021 41.3127C108.921 41.8328 110.364 41.8328 111.265 41.3127C111.721 41.0526 111.943 40.7058 111.943 40.3591V38.6749C111.943 39.0216 111.721 39.356 111.265 39.6284C110.364 40.1486 108.909 40.1486 108.021 39.6284C107.577 39.3684 107.355 39.034 107.355 38.6873V40.3715ZM107.355 44.8668C107.355 45.2012 107.577 45.548 108.021 45.808C108.921 46.3281 110.364 46.3281 111.265 45.808C111.721 45.548 111.943 45.2012 111.943 44.8545V43.1702C111.943 43.517 111.721 43.8514 111.265 44.1238C110.364 44.6439 108.909 44.6439 108.021 44.1238C107.577 43.8637 107.355 43.5294 107.355 43.1826V44.8668Z" fill="url(#paint13_linear_164633_182665)"/>
<path d="M55.4719 61.4861V86.5635L73.7365 97.2136V72.1486L55.4719 61.4861Z" fill="#3B3B3F"/>
<path d="M73.7366 72.1486V97.2136L118.245 71.418V46.3406L73.7366 72.1486Z" fill="#48484D"/>
<path d="M55.4719 61.4861L73.7365 72.1486L118.245 46.3406L99.9802 35.678L55.4719 61.4861Z" fill="#5F5F64"/>
<path d="M116.506 46.3406L99.9801 36.6935L57.2107 61.4861L73.7363 71.1332L116.506 46.3406Z" fill="#A09595"/>
<path d="M79.0394 71.4675L79.0271 94.1177L81.2716 95.4056L81.284 72.7555L79.0394 71.4675Z" fill="#3B3B3F"/>
<path d="M81.2841 72.7554L81.2717 95.4056L84.8358 93.3375L84.8482 70.6997L81.2841 72.7554Z" fill="#48484D"/>
<path d="M79.0393 71.4675L81.2838 72.7555L84.848 70.6997L82.6034 69.3994L79.0393 71.4675Z" fill="#5F5F64"/>
<path d="M73.7118 74.5511L73.6995 97.2013L75.944 98.5016L75.9563 75.8515L73.7118 74.5511Z" fill="#3B3B3F"/>
<path d="M75.9564 75.8514L75.9441 98.5016L79.5205 96.4335V73.7833L75.9564 75.8514Z" fill="#48484D"/>
<path d="M73.7119 74.5511L75.9564 75.8515L79.5206 73.7833L77.276 72.483L73.7119 74.5511Z" fill="#5F5F64"/>
<path d="M114.668 50.7988V73.4489L116.913 74.7492V52.0991L114.668 50.7988Z" fill="#3B3B3F"/>
<path d="M116.913 52.0991V74.7492L120.477 72.6811L120.489 50.0309L116.913 52.0991Z" fill="#48484D"/>
<path d="M114.668 50.7988L116.913 52.0991L120.489 50.031L118.232 48.743L114.668 50.7988Z" fill="#5F5F64"/>
<path d="M109.353 53.8948L109.341 76.5449L111.585 77.8329L111.597 55.1827L109.353 53.8948Z" fill="#3B3B3F"/>
<path d="M111.598 55.1827L111.585 77.8328L115.149 75.7771L115.162 53.127L111.598 55.1827Z" fill="#48484D"/>
<path d="M109.353 53.8948L111.597 55.1827L115.161 53.127L112.917 51.8267L109.353 53.8948Z" fill="#5F5F64"/>
<path d="M86.4883 76.0743L86.5006 89.8204L91.1377 92.6192L91.187 78.8359L86.4883 76.0743Z" fill="#3B3B3F"/>
<path d="M106.257 64.6068L106.282 78.3529L110.919 81.1641L110.968 67.3808L106.257 64.6068Z" fill="#3B3B3F"/>
<path d="M86.4883 76.0743L91.187 78.8359L110.993 67.3684L106.282 64.5944L86.4883 76.0743Z" fill="#5F5F64"/>
<path d="M99.9803 36.6935L57.2109 61.4861L58.2222 62.0681L99.9803 37.8576L115.495 46.9226L116.506 46.3405L99.9803 36.6935Z" fill="#8C8080"/>
<path d="M97.896 41.0403L95.3801 42.5016L97.2547 43.5914H98.7839L97.896 41.0403Z" fill="#8C8080"/>
<path d="M96.5393 41.3375V42.2786L98.7838 43.5913V42.6502L96.5393 41.3375Z" fill="#DBDBDB"/>
<path d="M98.7839 42.6502V43.5913L101.041 42.2786V41.3375L98.7839 42.6502Z" fill="#EDEDED"/>
<path d="M96.5393 41.3375L98.7838 42.6502L101.041 41.3375L98.7962 40.0248L96.5393 41.3375Z" fill="#F4F4F4"/>
<path d="M97.8218 40.7431C97.3039 41.0527 97.3039 41.5356 97.8218 41.8452C98.3398 42.1424 99.1907 42.1424 99.721 41.8452C100.239 41.5356 100.239 41.0527 99.721 40.7431C99.2031 40.4335 98.3521 40.4335 97.8218 40.7431Z" fill="#A09595"/>
<path d="M98.3892 41.065C98.1795 41.1889 98.1795 41.387 98.3892 41.5109C98.5988 41.6347 98.9441 41.6347 99.1661 41.5109C99.3881 41.387 99.3758 41.1889 99.1661 41.065C98.9565 40.9412 98.6112 40.9412 98.3892 41.065Z" fill="#F4F4F4"/>
<path d="M92.4822 44.1858L89.9663 45.6471L91.8285 46.7245H93.3701L92.4822 44.1858Z" fill="#8C8080"/>
<path d="M91.1133 44.483L91.1256 45.4118L93.3701 46.7245L93.3578 45.7957L91.1133 44.483Z" fill="#DBDBDB"/>
<path d="M93.3579 45.7957L93.3702 46.7245L95.6271 45.4118V44.483L93.3579 45.7957Z" fill="#EDEDED"/>
<path d="M91.1133 44.483L93.3578 45.7957L95.627 44.483L93.3701 43.1703L91.1133 44.483Z" fill="#F4F4F4"/>
<path d="M92.4083 43.8886C91.8903 44.1982 91.8903 44.6811 92.4083 44.9907C92.9262 45.3003 93.7772 45.3003 94.3075 44.9907C94.8254 44.6811 94.8254 44.1982 94.3075 43.8886C93.7895 43.579 92.9386 43.579 92.4083 43.8886Z" fill="#A09595"/>
<path d="M92.9631 44.2106C92.7535 44.3344 92.7535 44.5325 92.9631 44.6564C93.1728 44.7802 93.5181 44.7802 93.7401 44.6564C93.9621 44.5325 93.9498 44.3344 93.7401 44.2106C93.5305 44.0867 93.1851 44.0867 92.9631 44.2106Z" fill="#F4F4F4"/>
<path d="M87.068 47.3313L84.5398 48.7802L86.4143 49.87H87.9436L87.068 47.3313Z" fill="#8C8080"/>
<path d="M85.699 47.6161V48.5573L87.9435 49.87V48.9288L85.699 47.6161Z" fill="#DBDBDB"/>
<path d="M87.9436 48.9288V49.87L90.2005 48.5573V47.6285L87.9436 48.9288Z" fill="#EDEDED"/>
<path d="M85.699 47.6161L87.9435 48.9288L90.2004 47.6285L87.9558 46.3158L85.699 47.6161Z" fill="#F4F4F4"/>
<path d="M86.9815 47.0341C86.4635 47.3313 86.4635 47.8266 86.9815 48.1362C87.4995 48.4458 88.3504 48.4458 88.8807 48.1362C89.3987 47.8266 89.3987 47.3437 88.8807 47.0341C88.3627 46.7245 87.5118 46.7245 86.9815 47.0341Z" fill="#A09595"/>
<path d="M87.5488 47.3561C87.3392 47.4799 87.3392 47.678 87.5488 47.8019C87.7585 47.9257 88.1038 47.9257 88.3258 47.8019C88.5355 47.678 88.5355 47.4799 88.3258 47.3561C88.1161 47.2322 87.7708 47.2322 87.5488 47.3561Z" fill="#F4F4F4"/>
<path d="M81.6418 50.4644L79.126 51.9257L80.9882 53.0155H82.5298L81.6418 50.4644Z" fill="#8C8080"/>
<path d="M80.2852 50.7616V51.7028L82.5297 53.0155V52.0743L80.2852 50.7616Z" fill="#DBDBDB"/>
<path d="M82.5298 52.0743V53.0155L84.7866 51.7028V50.7616L82.5298 52.0743Z" fill="#EDEDED"/>
<path d="M80.2852 50.7616L82.5297 52.0743L84.7865 50.7616L82.542 49.4489L80.2852 50.7616Z" fill="#F4F4F4"/>
<path d="M81.5677 50.1672C81.0497 50.4644 81.0497 50.9598 81.5677 51.2694C82.0856 51.579 82.9366 51.579 83.4669 51.2694C83.9849 50.9722 83.9849 50.4768 83.4669 50.1672C82.9489 49.8576 82.098 49.8576 81.5677 50.1672Z" fill="#A09595"/>
<path d="M82.1226 50.4892C81.9129 50.613 81.9129 50.8112 82.1226 50.935C82.3322 51.0588 82.6775 51.0588 82.8995 50.935C83.1092 50.8112 83.1092 50.613 82.8995 50.4892C82.6899 50.3653 82.3446 50.3653 82.1226 50.4892Z" fill="#F4F4F4"/>
<path d="M76.2278 53.6099L73.7119 55.0712L75.5741 56.1486H77.1034L76.2278 53.6099Z" fill="#8C8080"/>
<path d="M74.8589 53.9071V54.8359L77.1034 56.1486V55.2198L74.8589 53.9071Z" fill="#DBDBDB"/>
<path d="M77.1035 55.2198V56.1486L79.3727 54.8483L79.3604 53.9071L77.1035 55.2198Z" fill="#EDEDED"/>
<path d="M74.8589 53.9071L77.1034 55.2198L79.3603 53.9071L77.1157 52.5944L74.8589 53.9071Z" fill="#F4F4F4"/>
<path d="M76.1539 53.3127C75.6359 53.6223 75.6359 54.1053 76.1539 54.4149C76.6718 54.7245 77.5228 54.7245 78.0531 54.4149C78.571 54.1177 78.571 53.6223 78.0531 53.3127C77.5351 53.0031 76.6842 53.0031 76.1539 53.3127Z" fill="#A09595"/>
<path d="M76.7088 53.6347C76.4991 53.7585 76.4991 53.9567 76.7088 54.0805C76.9184 54.2043 77.2637 54.2043 77.4857 54.0805C77.6954 53.9567 77.6954 53.7585 77.4857 53.6347C77.2761 53.5108 76.9307 53.5108 76.7088 53.6347Z" fill="#F4F4F4"/>
<path d="M70.8015 56.7554L68.2856 58.2167L70.1602 59.2941H71.6894L70.8015 56.7554Z" fill="#8C8080"/>
<path d="M69.4448 57.0526V57.9814L71.6894 59.2941V58.3529L69.4448 57.0526Z" fill="#DBDBDB"/>
<path d="M71.6895 58.3529V59.2941L73.9463 57.9814V57.0526L71.6895 58.3529Z" fill="#EDEDED"/>
<path d="M69.4448 57.0526L71.6894 58.3529L73.9462 57.0526L71.7017 55.7399L69.4448 57.0526Z" fill="#F4F4F4"/>
<path d="M70.7273 56.4582C70.2094 56.7678 70.2094 57.2508 70.7273 57.5604C71.2453 57.87 72.0963 57.87 72.6266 57.5604C73.1445 57.2508 73.1445 56.7678 72.6266 56.4582C72.1086 56.1486 71.2576 56.1486 70.7273 56.4582Z" fill="#A09595"/>
<path d="M71.2947 56.7802C71.085 56.904 71.085 57.1022 71.2947 57.226C71.5043 57.3499 71.8497 57.3499 72.0716 57.226C72.2813 57.1022 72.2813 56.904 72.0716 56.7802C71.862 56.6564 71.5167 56.6564 71.2947 56.7802Z" fill="#F4F4F4"/>
<path d="M65.3874 59.8885L62.8716 61.3499L64.7338 62.4396H66.2754L65.3874 59.8885Z" fill="#8C8080"/>
<path d="M64.0186 60.1857L64.0309 61.1269L66.2754 62.4396L66.2631 61.4984L64.0186 60.1857Z" fill="#DBDBDB"/>
<path d="M66.2632 61.4984L66.2755 62.4396L68.5324 61.1269V60.1857L66.2632 61.4984Z" fill="#EDEDED"/>
<path d="M64.0186 60.1857L66.2631 61.4984L68.5323 60.1857L66.2754 58.8854L64.0186 60.1857Z" fill="#F4F4F4"/>
<path d="M65.3135 59.5913C64.7956 59.9009 64.7956 60.3839 65.3135 60.6935C65.8315 61.0031 66.6824 61.0031 67.2127 60.6935C67.7307 60.3839 67.7307 59.9009 67.2127 59.5913C66.6948 59.2941 65.8438 59.2941 65.3135 59.5913Z" fill="#A09595"/>
<path d="M65.8684 59.9257C65.6588 60.0495 65.6588 60.2477 65.8684 60.3715C66.0781 60.4954 66.4234 60.4954 66.6454 60.3715C66.855 60.2477 66.855 60.0495 66.6454 59.9257C66.4357 59.8019 66.0904 59.8019 65.8684 59.9257Z" fill="#F4F4F4"/>
<path d="M101.694 43.2446L99.1663 44.6935L101.041 45.7833H102.57L101.694 43.2446Z" fill="#8C8080"/>
<path d="M100.325 43.5294V44.4706L102.57 45.7833V44.8421L100.325 43.5294Z" fill="#DBDBDB"/>
<path d="M102.57 44.8421V45.7833L104.827 44.4706V43.5418L102.57 44.8421Z" fill="#EDEDED"/>
<path d="M100.325 43.5294L102.57 44.8421L104.827 43.5418L102.582 42.2291L100.325 43.5294Z" fill="#F4F4F4"/>
<path d="M101.608 42.935C101.09 43.2322 101.09 43.7276 101.608 44.0372C102.126 44.3468 102.977 44.3468 103.507 44.0372C104.025 43.7276 104.025 43.2446 103.507 42.935C102.989 42.6254 102.138 42.6254 101.608 42.935Z" fill="#A09595"/>
<path d="M102.175 43.2694C101.966 43.3932 101.966 43.5914 102.175 43.7152C102.385 43.8391 102.73 43.8391 102.952 43.7152C103.162 43.5914 103.162 43.3932 102.952 43.2694C102.743 43.1456 102.397 43.1456 102.175 43.2694Z" fill="#F4F4F4"/>
<path d="M96.2683 46.3777L93.7524 47.839L95.6147 48.9288H97.1562L96.2683 46.3777Z" fill="#8C8080"/>
<path d="M94.9116 46.6749V47.6161L97.1561 48.9288V47.9876L94.9116 46.6749Z" fill="#DBDBDB"/>
<path d="M97.1562 47.9876V48.9288L99.4131 47.6161V46.6749L97.1562 47.9876Z" fill="#EDEDED"/>
<path d="M94.9116 46.6749L97.1561 47.9876L99.413 46.6749L97.1685 45.3622L94.9116 46.6749Z" fill="#F4F4F4"/>
<path d="M96.1941 46.0805C95.6762 46.3901 95.6762 46.8731 96.1941 47.1827C96.7121 47.4923 97.5631 47.4923 98.0934 47.1827C98.6113 46.8855 98.6113 46.3901 98.0934 46.0805C97.5754 45.7833 96.7244 45.7833 96.1941 46.0805Z" fill="#A09595"/>
<path d="M96.749 46.4025C96.5394 46.5263 96.5394 46.7245 96.749 46.8483C96.9587 46.9722 97.304 46.9722 97.526 46.8483C97.7356 46.7245 97.7356 46.5263 97.526 46.4025C97.3163 46.2787 96.971 46.2787 96.749 46.4025Z" fill="#F4F4F4"/>
<path d="M90.8541 49.5233L88.3259 50.9846L90.2005 52.062H91.7297L90.8541 49.5233Z" fill="#8C8080"/>
<path d="M89.4851 49.8204V50.7492L91.7296 52.0619V51.1331L89.4851 49.8204Z" fill="#DBDBDB"/>
<path d="M91.7297 51.1331V52.0619L93.9989 50.7616L93.9866 49.8204L91.7297 51.1331Z" fill="#EDEDED"/>
<path d="M89.4851 49.8204L91.7296 51.1331L93.9865 49.8204L91.742 48.5078L89.4851 49.8204Z" fill="#F4F4F4"/>
<path d="M90.7801 49.226C90.2621 49.5356 90.2621 50.0186 90.7801 50.3282C91.298 50.6378 92.149 50.6378 92.6793 50.3282C93.1973 50.0186 93.1973 49.5356 92.6793 49.226C92.1613 48.9164 91.3104 48.9164 90.7801 49.226Z" fill="#A09595"/>
<path d="M91.335 49.548C91.1253 49.6719 91.1253 49.87 91.335 49.9938C91.5446 50.1177 91.8899 50.1177 92.1119 49.9938C92.3216 49.87 92.3216 49.6719 92.1119 49.548C91.9023 49.4242 91.557 49.4242 91.335 49.548Z" fill="#F4F4F4"/>
<path d="M85.4279 52.6688L82.9121 54.1301L84.7743 55.2075H86.3159L85.4279 52.6688Z" fill="#8C8080"/>
<path d="M84.0713 52.9659V53.8947L86.3158 55.2074V54.2663L84.0713 52.9659Z" fill="#DBDBDB"/>
<path d="M86.3159 54.2663V55.2074L88.5728 53.8947V52.9659L86.3159 54.2663Z" fill="#EDEDED"/>
<path d="M84.0713 52.966L86.3158 54.2663L88.5727 52.966L86.3282 51.6533L84.0713 52.966Z" fill="#F4F4F4"/>
<path d="M85.3538 52.3715C84.8358 52.6811 84.8358 53.1641 85.3538 53.4737C85.8718 53.7833 86.7227 53.7833 87.253 53.4737C87.771 53.1641 87.771 52.6811 87.253 52.3715C86.7351 52.0619 85.8841 52.0619 85.3538 52.3715Z" fill="#A09595"/>
<path d="M85.9212 52.6935C85.7115 52.8174 85.7115 53.0155 85.9212 53.1393C86.1308 53.2632 86.4761 53.2632 86.6981 53.1393C86.9078 53.0155 86.9078 52.8174 86.6981 52.6935C86.4885 52.5697 86.1431 52.5697 85.9212 52.6935Z" fill="#F4F4F4"/>
<path d="M80.0139 55.8019L77.498 57.2632L79.3603 58.353H80.9018L80.0139 55.8019Z" fill="#8C8080"/>
<path d="M78.645 56.0991L78.6574 57.0402L80.9019 58.3529L80.8895 57.4118L78.645 56.0991Z" fill="#DBDBDB"/>
<path d="M80.8896 57.4118L80.902 58.3529L83.1588 57.0402L83.1465 56.0991L80.8896 57.4118Z" fill="#EDEDED"/>
<path d="M78.645 56.0991L80.8895 57.4118L83.1464 56.0991L80.9019 54.7864L78.645 56.0991Z" fill="#F4F4F4"/>
<path d="M79.94 55.5047C79.422 55.8143 79.422 56.2972 79.94 56.6068C80.458 56.9164 81.3089 56.9164 81.8392 56.6068C82.3572 56.2972 82.3572 55.8143 81.8392 55.5047C81.3212 55.1951 80.4703 55.1951 79.94 55.5047Z" fill="#A09595"/>
<path d="M80.4949 55.8266C80.2852 55.9505 80.2852 56.1486 80.4949 56.2725C80.7045 56.3963 81.0499 56.3963 81.2718 56.2725C81.4815 56.1486 81.4815 55.9505 81.2718 55.8266C81.0622 55.7028 80.7169 55.7028 80.4949 55.8266Z" fill="#F4F4F4"/>
<path d="M74.5876 58.9474L72.0718 60.4087L73.9463 61.4861H75.4756L74.5876 58.9474Z" fill="#8C8080"/>
<path d="M73.231 59.2446V60.1857L75.4755 61.4861V60.5573L73.231 59.2446Z" fill="#DBDBDB"/>
<path d="M75.4756 60.5573V61.4861L77.7324 60.1857V59.2446L75.4756 60.5573Z" fill="#EDEDED"/>
<path d="M73.231 59.2446L75.4755 60.5573L77.7323 59.2446L75.4878 57.9319L73.231 59.2446Z" fill="#F4F4F4"/>
<path d="M74.5135 58.6502C73.9955 58.9598 73.9955 59.4427 74.5135 59.7523C75.0314 60.0619 75.8824 60.0619 76.4127 59.7523C76.9307 59.4427 76.9307 58.9598 76.4127 58.6502C75.8947 58.3406 75.0438 58.3406 74.5135 58.6502Z" fill="#A09595"/>
<path d="M75.0808 58.9722C74.8712 59.096 74.8712 59.2941 75.0808 59.418C75.2905 59.5418 75.6358 59.5418 75.8578 59.418C76.0674 59.2941 76.0674 59.096 75.8578 58.9722C75.6481 58.8483 75.3028 58.8483 75.0808 58.9722Z" fill="#F4F4F4"/>
<path d="M69.1736 62.093L66.6577 63.5543L68.5199 64.6317H70.0615L69.1736 62.093Z" fill="#8C8080"/>
<path d="M67.8169 62.3901V63.3189L70.0614 64.6316V63.6904L67.8169 62.3901Z" fill="#DBDBDB"/>
<path d="M70.0615 63.6904V64.6316L72.3184 63.3189V62.3901L70.0615 63.6904Z" fill="#EDEDED"/>
<path d="M67.8169 62.3901L70.0614 63.6905L72.3183 62.3901L70.0738 61.0775L67.8169 62.3901Z" fill="#F4F4F4"/>
<path d="M69.0994 61.7957C68.5814 62.1053 68.5814 62.5883 69.0994 62.8979C69.6174 63.2075 70.4683 63.2075 70.9986 62.8979C71.5166 62.5883 71.5166 62.1053 70.9986 61.7957C70.4807 61.4861 69.6297 61.4861 69.0994 61.7957Z" fill="#A09595"/>
<path d="M69.6543 62.1177C69.4447 62.2416 69.4447 62.4397 69.6543 62.5635C69.864 62.6874 70.2093 62.6874 70.4313 62.5635C70.6409 62.4397 70.6409 62.2416 70.4313 62.1177C70.2216 61.9939 69.8763 61.9939 69.6543 62.1177Z" fill="#F4F4F4"/>
<path d="M116.506 46.3405L115.495 46.9226L99.9802 37.8576V36.6935L116.506 46.3405Z" fill="#776B6B"/>
<g style="mix-blend-mode:multiply" opacity="0.6">
<path d="M89.4973 92.1238H92.1118L92.2228 92.0619L89.4973 92.0495V92.1238Z" fill="#A09595"/>
</g>
<g style="mix-blend-mode:multiply" opacity="0.6">
<path d="M89.4973 91.1703H93.7274L93.8384 91.1083L89.4973 91.0959V91.1703Z" fill="#A09595"/>
</g>
<g style="mix-blend-mode:multiply" opacity="0.6">
<path d="M112.929 79.9381L113.484 79.6161L110.117 72.322C110.117 72.322 90.8417 83.3436 89.5098 84.2724V90.5511L90.0894 90.2167H95.3677L95.4787 90.1548H90.2127L91.7296 89.2755H96.9956L97.1066 89.2012H91.8653L93.3822 88.322H98.6235L98.7345 88.2477H93.9865L96.305 86.8978H101.102V86.8359H96.4037L98.8455 85.4241H103.569L103.68 85.3498H98.5002L99.9925 84.483H105.197L105.308 84.4087H100.128L101.62 83.5418H106.812L106.923 83.4675H101.744L103.236 82.5882H108.428L108.539 82.5139H103.359L104.851 81.647H110.043L110.154 81.5727H104.975L106.467 80.7059H111.659L111.77 80.6316H106.59L107.848 79.9009H112.942L112.929 79.9381ZM93.8262 88.26H93.4809L95.7994 86.9102H96.1447L93.8262 88.26ZM98.6852 85.4489L96.2433 86.8607H95.898L98.3399 85.4489H98.6852Z" fill="#A09595"/>
</g>
<path opacity="0.7" d="M89.2135 84.7802L113.015 70.8854L113.003 79.9504L89.2012 93.8452L89.2135 84.7802Z" fill="url(#paint14_linear_164633_182665)"/>
<path d="M113.016 76.3839L111.782 77.1022V73.4613L113.016 72.743V72.6316L111.782 73.3498V71.6161L111.684 71.678V73.4118L110.142 74.3158V72.582L110.043 72.644V74.3777L108.502 75.2817V73.5356L108.403 73.5975V75.3189L106.862 76.2229V74.5015L106.763 74.5635V76.2848L105.221 77.1888V75.4675L105.123 75.5294V77.2508L103.581 78.1548V76.4334L103.483 76.4953V78.1919L101.941 79.096V77.3994L101.842 77.4613V79.1579L100.301 80.0619V78.3653L100.202 78.4272V80.1362L98.6605 81.0402V79.3313L98.5618 79.3932V81.0774L97.0203 81.9814V80.2972L96.9216 80.3591V82.0433L95.38 82.9474V81.2631L95.2814 81.3251V83.0093L93.7398 83.9133V82.2291L93.6412 82.291V83.9505L92.0996 84.8545V83.195L92.0009 83.257V84.9164L90.4593 85.8204V84.161L90.3607 84.2229V85.8947L89.1891 86.5758V86.6873L90.3607 86.0062V89.647L89.1768 90.3405V90.452L90.3607 89.7585V93.2755L90.4593 93.2136V89.6966L92.0009 88.7926V92.3096L92.0996 92.2477V88.7306L93.6412 87.8266V91.3436L93.7398 91.2817V87.7895L95.2814 86.8854V90.3777L95.38 90.3158V86.8111L96.9216 85.9071V89.4117L97.0203 89.3498V85.8452L98.5618 84.9412V88.4458L98.6605 88.3839V85.6223L101.041 84.2477V86.9969L101.115 86.9597V84.2105L103.483 82.8359V85.5727L103.581 85.5108V82.0557L105.123 81.1517V84.6192L105.221 84.5573V81.0898L106.763 80.1857V83.6532L106.862 83.5913V80.1238L108.403 79.2198V82.6873L108.502 82.6254V79.1826L110.043 78.2786V81.7213L110.142 81.6594V78.2167L111.684 77.3127V80.7554L111.782 80.6935V77.2508L113.016 76.5325V76.421V76.3839ZM92.0256 88.4953V88.5573L90.484 89.4613V89.3994C90.484 85.3498 90.484 86.7988 90.484 85.8204L92.0256 84.9164C92.0256 85.7461 92.0256 84.2477 92.0256 88.4953ZM93.6658 87.5418V87.5913L92.1242 88.4953V88.4334C92.1242 84.1858 92.1242 86.1672 92.1242 84.8545L93.6658 83.9505C93.6658 85.5727 93.6658 82.8111 93.6658 87.5418ZM95.306 86.5882V86.6501L93.7645 87.5542V83.9133L95.306 83.0093V86.5882ZM96.9463 85.6966L95.4047 86.6006V86.5387C95.4047 82.4891 95.4047 83.9381 95.4047 82.9597L96.9463 82.0557V85.6966ZM98.5865 84.743L97.0449 85.6471V82.0062L98.5865 81.1022V84.743ZM100.325 80.1114L101.867 79.2074V82.8483L100.325 83.7523V80.1114ZM98.6852 81.065L100.227 80.161V83.8018L98.6852 84.7059V81.065ZM103.495 82.6749L98.6852 85.4613V84.8049C99.2155 84.4953 102.681 82.4644 103.495 81.9938V82.6625V82.6749ZM103.495 81.8823L101.953 82.7864V79.1455L103.495 78.2415V81.8823ZM105.135 80.9536L103.594 81.8576V78.2167L105.135 77.3127V80.9536ZM106.775 80L105.234 80.904V77.2631L106.775 76.3591V80ZM108.416 79.0464L106.874 79.9504V76.3096L108.416 75.4056V79.0464ZM110.056 78.1176L108.514 79.0217V75.3808L110.056 74.4768V78.1176ZM111.696 77.1641L110.154 78.0681V74.4272L111.696 73.5232V77.1641Z" fill="#489B8D"/>
<path d="M87.401 66.5387L87.3887 73.7957L104.913 63.6656L104.926 56.3715L87.401 66.5387Z" fill="white"/>
<g style="mix-blend-mode:multiply" opacity="0.6">
<path d="M102.496 63.6657L101.164 64.4458H103.335V64.5697H100.942L99.5239 65.3994H101.694V65.5232H99.3019L97.8837 66.353H100.054V66.4768H97.6617L96.2434 67.3065H98.414V67.4304H96.0214L94.6032 68.2601H96.7737V68.3839H94.3812L92.963 69.2136H95.1335V69.3375H92.741L91.3227 70.1672H93.4933V70.291H91.1008L89.6825 71.1208H91.853V71.2446H89.4605L88.0423 72.0743H90.2128V72.1982H87.8203L87.0557 72.644V66.4025L105.074 56.0496L104.901 63.6904H102.484L102.496 63.6657ZM87.068 73.1146H88.5849V72.9907H87.068V73.1146Z" fill="#A09595"/>
</g>
<path opacity="0.7" d="M87.401 66.5387L104.926 56.3715L104.913 63.6656L87.3887 73.7957L87.401 66.5387Z" fill="url(#paint15_linear_164633_182665)"/>
<path d="M86.8584 66.1301L86.8337 74.1177L87.3887 73.7957L87.401 66.5635L104.926 56.3963L104.913 63.6657L105.456 63.3065L105.468 55.3313L86.8584 66.1301Z" fill="#48484D"/>
<path d="M104.913 59.9505L103.409 60.8298V57.288L103.31 57.3499V60.8917L101.769 61.7957V58.2539L101.67 58.3158V61.8329L100.128 62.7369V59.2075L100.03 59.2694V62.7988L98.4881 63.7028V60.1734L98.3895 60.2353V63.7647L96.8479 64.6688V61.1394L96.7492 61.2013V64.7059L95.2076 65.6099V62.1053L95.109 62.1672V65.6719L93.5674 66.5759V63.0712L93.4688 63.1332V66.6378L91.9272 67.5418V64.0372L91.8285 64.0991V67.579L90.287 68.483V64.9908L90.1883 65.0527V68.5449L88.6467 69.449V65.9567L88.5481 66.0186V69.5109L87.3765 70.192V70.3034L88.5481 69.6223V73.1889L88.6467 73.127C88.6467 69.0898 88.6467 70.5387 88.6467 69.5604L90.1883 68.6564C90.1883 69.4861 90.1883 68 90.1883 72.2353L90.287 72.1734C90.287 67.9381 90.287 69.9195 90.287 68.5945L91.8285 67.6904C91.8285 69.3127 91.8285 66.5635 91.8285 71.2694L91.9272 71.2075V67.6533L93.4688 66.7493V70.3158L93.5674 70.2539C93.5674 66.2168 93.5674 67.6657 93.5674 66.6873L95.109 65.7833V69.3623L95.2076 69.3003V65.7214L96.7492 64.8174V68.3963L96.8479 68.3344V64.7802L98.3895 63.8762V67.4428L98.4881 67.3808V63.8143L100.03 62.9103V66.4892L100.128 66.4273V62.8483L101.67 61.9443V65.5233L101.769 65.4613V61.9072L103.31 61.0031V64.5697L103.409 64.5078V60.9412L104.913 60.062V59.9505Z" fill="#489B8D"/>
<path d="M91.187 78.8359L91.1377 92.6192L92.1613 92.0371L92.1736 83.0588L109.994 72.6439L109.982 81.6966L110.944 81.1517L110.993 67.3684L91.187 78.8359Z" fill="#48484D"/>
<path d="M40.2781 89.6842C39.4519 89.6842 38.6256 89.4737 37.8856 89.0403L21.0887 79.2941C20.8913 79.1827 20.8173 78.9226 20.9407 78.7121C21.0517 78.5139 21.3106 78.4396 21.5203 78.5635L38.3173 88.3096C39.5258 89.0155 41.0428 89.0155 42.2513 88.3096L57.8521 79.2694C58.0494 79.1579 58.3084 79.2198 58.4317 79.418C58.5427 79.6161 58.481 79.8762 58.2837 80L42.683 89.0403C41.943 89.4613 41.1167 89.6842 40.2905 89.6842H40.2781Z" fill="#5F5F64"/>
<path d="M48.4177 91.8266L48.4301 93.5108L54.547 97.0898V95.3932L48.4177 91.8266Z" fill="#3B3B3F"/>
<path d="M54.5471 95.3932V97.0898L60.7134 93.5108V91.8266L54.5471 95.3932Z" fill="#48484D"/>
<path d="M48.4177 91.8266L54.547 95.3932L60.7133 91.8266L54.584 88.2477L48.4177 91.8266Z" fill="#5F5F64"/>
<path d="M51.3898 76.0991C53.1163 77.1021 55.9158 77.1021 57.6547 76.0991C58.5303 75.5913 58.962 74.9226 58.962 74.2662L59.0113 91.3312C59.0113 92 58.5797 92.6563 57.704 93.1641C55.9651 94.1672 53.1657 94.1796 51.4391 93.1641C50.5881 92.6687 50.1565 92.0124 50.1565 91.356L50.1072 74.291C50.1072 74.9474 50.5388 75.6037 51.3898 76.0991Z" fill="url(#paint16_linear_164633_182665)"/>
<path d="M51.4145 72.4458C49.6756 73.4489 49.6632 75.0836 51.3898 76.0867C53.1163 77.0898 55.9158 77.0898 57.6547 76.0867C59.3936 75.0836 59.406 73.4489 57.6794 72.4458C55.9528 71.4427 53.1533 71.4427 51.4145 72.4458Z" fill="#F2ECDD"/>
<path d="M53.1533 72.1115C53.9179 71.6656 55.1512 71.6656 55.9158 72.1115C56.6804 72.5573 56.6681 73.2756 55.9158 73.7214C55.1512 74.1672 53.9056 74.1672 53.1533 73.7214C52.401 73.2756 52.401 72.5573 53.1533 72.1115Z" fill="#FFF9E9"/>
<path d="M55.7803 96.0867V97.7833L61.9096 101.35L61.8972 99.6532L55.7803 96.0867Z" fill="#3B3B3F"/>
<path d="M61.8972 99.6532L61.9096 101.35L68.0758 97.7833L68.0635 96.0867L61.8972 99.6532Z" fill="#48484D"/>
<path d="M55.7803 96.0867L61.8972 99.6533L68.0635 96.0867L61.9466 92.5078L55.7803 96.0867Z" fill="#5F5F64"/>
<path d="M58.7526 80.3591C60.4791 81.3622 63.2786 81.3622 65.0175 80.3591C65.8931 79.8514 66.3248 79.1827 66.3248 78.5263L66.3741 95.5913C66.3741 96.2601 65.9424 96.9164 65.0668 97.4241C63.3279 98.4272 60.5285 98.4396 58.8019 97.4241C57.9509 96.9288 57.5193 96.2724 57.5193 95.6161L57.47 78.5511C57.47 79.2074 57.9016 79.8638 58.7526 80.3591Z" fill="url(#paint17_linear_164633_182665)"/>
<path d="M58.7648 76.7183C57.0259 77.7214 57.0136 79.356 58.7401 80.3591C60.4667 81.3622 63.2662 81.3622 65.0051 80.3591C66.744 79.356 66.7563 77.7214 65.0297 76.7183C63.3032 75.7152 60.5037 75.7152 58.7648 76.7183Z" fill="#F2ECDD"/>
<path d="M60.5161 76.3839C61.2807 75.9381 62.514 75.9381 63.2786 76.3839C64.0432 76.8297 64.0309 77.548 63.2786 77.9938C62.514 78.4397 61.2684 78.4397 60.5161 77.9938C59.7638 77.548 59.7638 76.8297 60.5161 76.3839Z" fill="#FFF9E9"/>
<path d="M44.7303 98.4025C44.0643 98.4025 43.4107 98.2291 42.8187 97.8948L18.1659 83.6037C17.537 83.2446 17.167 82.5882 17.167 81.8576C17.167 81.1269 17.537 80.483 18.1659 80.1115L24.9488 76.1734C25.1462 76.0619 25.4052 76.1239 25.5285 76.322C25.6395 76.5201 25.5778 76.7802 25.3805 76.904L18.5976 80.8421C18.2276 81.0526 18.0179 81.4365 18.0179 81.8576C18.0179 82.2786 18.2399 82.6625 18.5976 82.8731L43.2504 97.1641C44.1753 97.6966 45.3099 97.6966 46.2349 97.1641L51.2419 94.2663C51.4392 94.1548 51.6982 94.2167 51.8215 94.4149C51.9325 94.613 51.8708 94.8731 51.6735 94.9969L46.6665 97.8948C46.0745 98.2415 45.4209 98.4025 44.755 98.4025H44.7303Z" fill="#5F5F64"/>
<path d="M52.0681 102.663C51.4021 102.663 50.7485 102.489 50.1565 102.155L25.5037 87.8638C25.3064 87.7523 25.2324 87.4922 25.3557 87.2817C25.4667 87.0836 25.7257 87.0093 25.9353 87.1331L50.5881 101.424C51.5131 101.957 52.6477 101.957 53.5726 101.424L58.5796 98.5263C58.777 98.4148 59.036 98.4768 59.1593 98.6749C59.2703 98.8731 59.2086 99.1331 59.0113 99.257L54.0043 102.155C53.4123 102.502 52.7587 102.663 52.0927 102.663H52.0681Z" fill="#5F5F64"/>
<path d="M35.5055 36.6935C34.0502 36.582 32.9403 37.8823 33.002 39.6037C33.076 41.3127 34.3092 42.7864 35.7521 42.8978C37.2074 43.0093 38.3173 41.709 38.2556 39.9876C38.1816 38.2786 36.9484 36.8049 35.5055 36.6935Z" fill="url(#paint18_radial_164633_182665)"/>
<path d="M65.93 18.8483C64.4748 18.7368 63.3649 20.0371 63.4265 21.7585C63.5005 23.4675 64.7338 24.9412 66.1767 25.0526C67.6319 25.1641 68.7419 23.8638 68.6802 22.1424C68.6062 20.4334 67.3729 18.9597 65.93 18.8483Z" fill="url(#paint19_radial_164633_182665)"/>
<path d="M144.34 68.5697L124.954 79.8142L120.181 77.0526L139.58 65.808L144.34 68.5697Z" fill="url(#paint20_radial_164633_182665)"/>
<path d="M92.4203 98.6749L73.0211 109.907L68.2607 107.145L87.6475 95.9009L92.4203 98.6749Z" fill="url(#paint21_radial_164633_182665)"/>
</g>
<defs>
<linearGradient id="paint0_linear_164633_182665" x1="48.763" y1="55.2074" x2="89.6701" y2="55.2074" gradientUnits="userSpaceOnUse">
<stop stop-color="#3B3B3F"/>
<stop offset="1" stop-color="#48484D"/>
</linearGradient>
<linearGradient id="paint1_linear_164633_182665" x1="57.3464" y1="14.6006" x2="81.3086" y2="14.6006" gradientUnits="userSpaceOnUse">
<stop stop-color="#B8AF9A"/>
<stop offset="1" stop-color="#9E947C"/>
</linearGradient>
<linearGradient id="paint2_linear_164633_182665" x1="58.2098" y1="4.33439" x2="80.4578" y2="4.33439" gradientUnits="userSpaceOnUse">
<stop stop-color="#D3C9B2"/>
<stop offset="0.14" stop-color="#CDC3AB"/>
<stop offset="1" stop-color="#AEA388"/>
</linearGradient>
<linearGradient id="paint3_linear_164633_182665" x1="53.8317" y1="33.2136" x2="84.6015" y2="33.2136" gradientUnits="userSpaceOnUse">
<stop stop-color="#AEA388"/>
<stop offset="0.6" stop-color="#CDC3AB"/>
<stop offset="1" stop-color="#E4DBC6"/>
</linearGradient>
<linearGradient id="paint4_linear_164633_182665" x1="18.6715" y1="72.6563" x2="59.5786" y2="72.6563" gradientUnits="userSpaceOnUse">
<stop stop-color="#3B3B3F"/>
<stop offset="1" stop-color="#48484D"/>
</linearGradient>
<linearGradient id="paint5_linear_164633_182665" x1="27.2549" y1="32.0496" x2="51.217" y2="32.0496" gradientUnits="userSpaceOnUse">
<stop stop-color="#B8AF9A"/>
<stop offset="1" stop-color="#9E947C"/>
</linearGradient>
<linearGradient id="paint6_linear_164633_182665" x1="28.1182" y1="21.7833" x2="50.3661" y2="21.7833" gradientUnits="userSpaceOnUse">
<stop stop-color="#D3C9B2"/>
<stop offset="0.14" stop-color="#CDC3AB"/>
<stop offset="1" stop-color="#AEA388"/>
</linearGradient>
<linearGradient id="paint7_linear_164633_182665" x1="23.7402" y1="50.6625" x2="54.5099" y2="50.6625" gradientUnits="userSpaceOnUse">
<stop stop-color="#AEA388"/>
<stop offset="0.6" stop-color="#CDC3AB"/>
<stop offset="1" stop-color="#E4DBC6"/>
</linearGradient>
<linearGradient id="paint8_linear_164633_182665" x1="115.063" y1="29.8204" x2="119.651" y2="29.8204" gradientUnits="userSpaceOnUse">
<stop stop-color="#AEA388"/>
<stop offset="0.6" stop-color="#CDC3AB"/>
<stop offset="1" stop-color="#E4DBC6"/>
</linearGradient>
<linearGradient id="paint9_linear_164633_182665" x1="115.519" y1="7.17027" x2="119.194" y2="7.17027" gradientUnits="userSpaceOnUse">
<stop stop-color="#B8AF9A"/>
<stop offset="1" stop-color="#9E947C"/>
</linearGradient>
<linearGradient id="paint10_linear_164633_182665" x1="115.063" y1="31.1702" x2="119.651" y2="31.1702" gradientUnits="userSpaceOnUse">
<stop stop-color="#776B6B"/>
<stop offset="0.86" stop-color="#9A8E8E"/>
<stop offset="1" stop-color="#A09595"/>
</linearGradient>
<linearGradient id="paint11_linear_164633_182665" x1="107.355" y1="25.3499" x2="111.955" y2="25.3499" gradientUnits="userSpaceOnUse">
<stop stop-color="#AEA388"/>
<stop offset="0.6" stop-color="#CDC3AB"/>
<stop offset="1" stop-color="#E4DBC6"/>
</linearGradient>
<linearGradient id="paint12_linear_164633_182665" x1="107.824" y1="2.71208" x2="111.487" y2="2.71208" gradientUnits="userSpaceOnUse">
<stop stop-color="#B8AF9A"/>
<stop offset="1" stop-color="#9E947C"/>
</linearGradient>
<linearGradient id="paint13_linear_164633_182665" x1="107.355" y1="26.6997" x2="111.955" y2="26.6997" gradientUnits="userSpaceOnUse">
<stop stop-color="#776B6B"/>
<stop offset="0.86" stop-color="#9A8E8E"/>
<stop offset="1" stop-color="#A09595"/>
</linearGradient>
<linearGradient id="paint14_linear_164633_182665" x1="89.2012" y1="82.3653" x2="113.015" y2="82.3653" gradientUnits="userSpaceOnUse">
<stop stop-color="#72C9B2"/>
<stop offset="0.57" stop-color="#60BCB0"/>
<stop offset="1" stop-color="#51B1AF"/>
</linearGradient>
<linearGradient id="paint15_linear_164633_182665" x1="87.3887" y1="65.0898" x2="104.926" y2="65.0898" gradientUnits="userSpaceOnUse">
<stop stop-color="#72C9B2"/>
<stop offset="0.57" stop-color="#60BCB0"/>
<stop offset="1" stop-color="#51B1AF"/>
</linearGradient>
<linearGradient id="paint16_linear_164633_182665" x1="50.1072" y1="84.0867" x2="59.0113" y2="84.0867" gradientUnits="userSpaceOnUse">
<stop stop-color="#AEA388"/>
<stop offset="0.6" stop-color="#CDC3AB"/>
<stop offset="1" stop-color="#E4DBC6"/>
</linearGradient>
<linearGradient id="paint17_linear_164633_182665" x1="57.4576" y1="88.3591" x2="66.3741" y2="88.3591" gradientUnits="userSpaceOnUse">
<stop stop-color="#AEA388"/>
<stop offset="0.6" stop-color="#CDC3AB"/>
<stop offset="1" stop-color="#E4DBC6"/>
</linearGradient>
<radialGradient id="paint18_radial_164633_182665" cx="0" cy="0" r="1" gradientUnits="userSpaceOnUse" gradientTransform="translate(35.6411 39.8018) scale(2.87349 2.88545)">
<stop stop-color="#009CCD"/>
<stop offset="0.86" stop-color="#0085B5"/>
<stop offset="1" stop-color="#0081B1"/>
</radialGradient>
<radialGradient id="paint19_radial_164633_182665" cx="0" cy="0" r="1" gradientUnits="userSpaceOnUse" gradientTransform="translate(66.0534 21.9443) scale(2.87349 2.88545)">
<stop stop-color="#009CCD"/>
<stop offset="0.86" stop-color="#0085B5"/>
<stop offset="1" stop-color="#0081B1"/>
</radialGradient>
<radialGradient id="paint20_radial_164633_182665" cx="0" cy="0" r="1" gradientUnits="userSpaceOnUse" gradientTransform="translate(132.267 72.8049) scale(9.86606 9.90712)">
<stop stop-color="#009CCD"/>
<stop offset="0.86" stop-color="#0085B5"/>
<stop offset="1" stop-color="#0081B1"/>
</radialGradient>
<radialGradient id="paint21_radial_164633_182665" cx="0" cy="0" r="1" gradientUnits="userSpaceOnUse" gradientTransform="translate(80.3343 102.91) scale(9.86606 9.90712)">
<stop stop-color="#009CCD"/>
<stop offset="0.86" stop-color="#0085B5"/>
<stop offset="1" stop-color="#0081B1"/>
</radialGradient>
<clipPath id="clip0_164633_182665">
<rect width="151" height="116" fill="white"/>
</clipPath>
</defs>
</svg>
