<svg width="99" height="95" viewBox="0 0 99 95" fill="none" xmlns="http://www.w3.org/2000/svg">
<path d="M31.9529 95L23.6104 90.2167V86.3175L31.9529 91.1008V95Z" fill="#DBDBDB"/>
<path d="M41.1428 89.7383L31.9529 95V91.1008L41.1428 85.8392V89.7383Z" fill="#EDEDED"/>
<path d="M31.9529 91.1009L23.6104 86.3175L32.8003 81.0558L41.1428 85.8392L31.9529 91.1009Z" fill="#F4F4F4"/>
<path d="M61.7874 77.9104L53.4448 73.1271V69.2279L61.7874 74.0112V77.9104Z" fill="#DBDBDB"/>
<path d="M70.9773 72.6487L61.7874 77.9104V74.0112L70.9773 68.7496V72.6487Z" fill="#EDEDED"/>
<path d="M61.7874 74.0113L53.4448 69.2279L62.6348 63.9662L70.9773 68.7496L61.7874 74.0113Z" fill="#F4F4F4"/>
<path d="M66.4189 66.4014V69.2425L66.8134 69.0105V66.184L66.4189 66.4014Z" fill="#48484D"/>
<path d="M66.3896 64.3577C66.1559 63.8214 65.8344 63.314 65.4546 62.8937C65.1331 62.5313 64.7679 62.2269 64.388 62.0095C63.7013 61.6181 63.0877 61.5891 62.6494 61.8355L62.2549 62.0675C62.6932 61.8066 63.3068 61.85 63.9935 62.2414C64.3734 62.4588 64.7386 62.7632 65.0601 63.1256C65.4399 63.5604 65.7614 64.0678 65.9951 64.5896C66.2581 65.1984 66.4188 65.8217 66.4188 66.4159L66.8133 66.184C66.8133 65.6042 66.6526 64.9665 66.3896 64.3577Z" fill="#5F5F64"/>
<path d="M63.9936 62.2269C62.6348 61.4587 61.5537 62.0674 61.5391 63.6184V66.4594L66.4189 69.2569V66.4159C66.4189 64.8795 65.3378 63.0096 63.9936 62.2269Z" fill="#3B3B3F"/>
<path style="mix-blend-mode:screen" d="M65.4545 62.8792L65.0601 63.1111C65.4399 63.5459 65.7614 64.0532 65.9951 64.5751L66.3896 64.3431C66.1558 63.8068 65.8344 63.2995 65.4545 62.8792Z" fill="url(#paint0_linear_164633_182935)"/>
<path d="M63.073 32.0484L65.8051 30.4684V68.7496L63.073 70.3151V32.0484Z" fill="#48484D"/>
<path d="M65.3378 28.4681C65.0748 27.8738 64.7095 27.3085 64.2858 26.8447C63.9352 26.4388 63.5261 26.1055 63.1024 25.859C62.3573 25.4242 61.6706 25.3952 61.1884 25.6706L58.4563 27.2506C58.9531 26.9607 59.6251 27.0041 60.3703 27.439C60.794 27.6854 61.1884 28.0188 61.5537 28.4246C61.9774 28.903 62.3427 29.4683 62.6056 30.0481C62.8979 30.7148 63.0732 31.4106 63.0732 32.0484L65.8053 30.4684C65.8053 29.8307 65.63 29.1204 65.3378 28.4681Z" fill="#5F5F64"/>
<path style="mix-blend-mode:screen" d="M61.5681 28.4102L64.3003 26.8302C64.724 27.3085 65.0892 27.8738 65.3522 28.4536L62.6201 30.0336C62.3571 29.4393 61.9918 28.874 61.5681 28.4102Z" fill="url(#paint1_linear_164633_182935)"/>
<path d="M60.3848 27.4245C61.875 28.2797 63.0877 30.3525 63.0731 32.0484V70.3151L57.6672 67.2277V28.961C57.6672 27.265 58.8945 26.5838 60.3848 27.4245Z" fill="#39393D"/>
<path d="M62.1089 68.8801V71.7211L62.5034 71.4891V68.6481L62.1089 68.8801Z" fill="#48484D"/>
<path d="M62.0796 66.8218C61.8458 66.2855 61.5244 65.7781 61.1445 65.3578C60.8231 64.9954 60.4578 64.691 60.0779 64.4736C59.3913 64.0822 58.7776 64.0532 58.3393 64.2997L57.9448 64.5316C58.3831 64.2707 58.9968 64.3141 59.6835 64.7055C60.0633 64.9229 60.4286 65.2273 60.75 65.5897C61.1299 66.0246 61.4513 66.5319 61.6997 67.0537C61.9627 67.6625 62.1234 68.2858 62.1234 68.8801L62.5179 68.6481C62.5179 68.0683 62.3572 67.4306 62.0942 66.8218H62.0796Z" fill="#5F5F64"/>
<path d="M59.6689 64.691C58.3101 63.9228 57.229 64.5316 57.2144 66.0825V68.9235L62.0942 71.7211V68.88C62.0942 67.3436 61.0131 65.4737 59.6689 64.691Z" fill="#3B3B3F"/>
<path style="mix-blend-mode:screen" d="M61.1298 65.3578L60.7354 65.5897C61.1152 66.0246 61.4367 66.5319 61.685 67.0537L62.0795 66.8218C61.8457 66.2855 61.5243 65.7781 61.1444 65.3578H61.1298Z" fill="url(#paint2_linear_164633_182935)"/>
<path d="M36.6868 83.433V86.274L37.0959 86.0421V83.2011L36.6868 83.433Z" fill="#48484D"/>
<path d="M36.6721 81.3892C36.4383 80.8529 36.1169 80.3456 35.737 79.9252C35.4156 79.5629 35.0503 79.2585 34.6705 79.041C33.9838 78.6497 33.3701 78.6207 32.9318 78.8671L32.5374 79.099C32.9757 78.8381 33.5893 78.8816 34.276 79.273C34.6559 79.4904 35.0211 79.7948 35.3425 80.1571C35.7224 80.592 36.0438 81.0993 36.2776 81.6211C36.5406 82.2299 36.7013 82.8532 36.7013 83.4475L37.0958 83.2156C37.0958 82.6358 36.9351 81.998 36.6721 81.3892Z" fill="#5F5F64"/>
<path d="M34.2614 79.2584C32.9027 78.4902 31.8215 79.099 31.8069 80.65V83.491L36.6868 86.2885V83.4475C36.6868 81.911 35.6056 80.0412 34.2614 79.2584Z" fill="#3B3B3F"/>
<path style="mix-blend-mode:screen" d="M35.7224 79.9107L35.3279 80.1426C35.7078 80.5775 36.0292 81.0848 36.2629 81.6066L36.6574 81.3747C36.4237 80.8384 36.1022 80.3311 35.7224 79.9107Z" fill="url(#paint3_linear_164633_182935)"/>
<path d="M33.3554 49.08L36.0876 47.5V85.7667L33.3408 87.3467L33.3554 49.08Z" fill="#48484D"/>
<path d="M35.62 45.4852C35.357 44.8909 34.9918 44.3256 34.5681 43.8473C34.2174 43.4414 33.8083 43.108 33.3846 42.8616C32.6395 42.4267 31.9528 42.3978 31.4707 42.6732L28.7385 44.2531C29.2353 43.9632 29.9074 44.0067 30.6525 44.4415C31.0762 44.688 31.4707 45.0213 31.8359 45.4272C32.2596 45.9055 32.6249 46.4708 32.8879 47.0651C33.1801 47.7319 33.3554 48.4277 33.3554 49.0654L36.0876 47.4855C36.0876 46.8477 35.9122 46.1375 35.62 45.4852Z" fill="#5F5F64"/>
<path style="mix-blend-mode:screen" d="M31.8359 45.4417L34.5681 43.8618C34.9918 44.3401 35.357 44.9054 35.62 45.4997L32.8879 47.0796C32.6249 46.4853 32.2596 45.92 31.8359 45.4562V45.4417Z" fill="url(#paint4_linear_164633_182935)"/>
<path d="M30.6526 44.456C32.1428 45.3112 33.3555 47.384 33.3409 49.0799V87.3466L27.9351 84.2592V45.978C27.9351 44.2821 29.1623 43.6008 30.6526 44.4415V44.456Z" fill="#39393D"/>
<path d="M32.3767 85.9116V88.7381L32.7712 88.5207V85.6797L32.3767 85.9116Z" fill="#48484D"/>
<path d="M32.3474 83.8533C32.1136 83.317 31.7922 82.8097 31.4123 82.3893C31.0909 82.027 30.7256 81.7226 30.3458 81.5051C29.6591 81.1138 29.0454 81.0848 28.6071 81.3312L28.2126 81.5631C28.651 81.3022 29.2646 81.3457 29.9513 81.7371C30.3312 81.9545 30.6964 82.2589 31.0178 82.6213C31.3977 83.0561 31.7191 83.5634 31.9675 84.0852C32.2305 84.694 32.3912 85.3173 32.3912 85.9116L32.7857 85.6797C32.7857 85.0999 32.625 84.4621 32.362 83.8533H32.3474Z" fill="#5F5F64"/>
<path d="M29.9514 81.7226C28.5926 80.9543 27.5114 81.5631 27.4968 83.1141V85.9551L32.3767 88.7526V85.9116C32.3767 84.3751 31.2955 82.5053 29.9514 81.7371V81.7226Z" fill="#3B3B3F"/>
<path style="mix-blend-mode:screen" d="M31.4123 82.3893L31.0178 82.6213C31.3977 83.0561 31.7191 83.5634 31.9675 84.0853L32.362 83.8533C32.1282 83.317 31.8068 82.8097 31.4269 82.3893H31.4123Z" fill="url(#paint5_linear_164633_182935)"/>
<path d="M35.3718 68.4598L83.2793 40.8903L85.6023 33.121L37.6949 60.6905L35.3718 68.4598Z" fill="#B8B8B8"/>
<path d="M64.1833 14.7414L85.6022 33.121L37.6947 60.6904L16.2759 42.3108L64.1833 14.7414Z" fill="#F4F4F4"/>
<path d="M84.5941 32.9181L64.1834 15.4081L17.4302 42.3108L37.8263 59.8352L84.5941 32.9181Z" fill="#345E7A"/>
<path d="M16.2759 42.3108L13.9529 50.0801L35.3717 68.4597L37.6948 60.6904L16.2759 42.3108Z" fill="#C7C7C7"/>
<path d="M47.1331 71.7645L98.5324 42.0354L98.9999 40.4699L47.586 70.1846L47.1331 71.7645Z" fill="#EDEDED"/>
<path d="M51.8669 0L99 40.4699L47.586 70.1846L0.467529 29.7147L51.8669 0Z" fill="#F4F4F4"/>
<path d="M96.7646 40.0206L51.8669 1.46399L2.99512 29.7147L47.9075 68.2858L96.7646 40.0206Z" fill="#345E7A"/>
<path d="M0.467532 29.7147L0 31.2946L47.1331 71.7645L47.586 70.1846L0.467532 29.7147Z" fill="#DBDBDB"/>
<path opacity="0.7" d="M20.2208 36.1215C19.987 36.1215 19.7679 36.1794 19.5926 36.2809L16.1299 38.2667C15.94 38.3827 15.8085 38.5421 15.7939 38.7306C15.7792 38.9335 15.8815 39.1219 16.0715 39.2959L19.3004 42.0209C19.5487 42.2238 19.914 42.3543 20.2792 42.3543C20.5276 42.3543 20.7468 42.2963 20.9221 42.1949L24.3848 40.209C24.5747 40.0931 24.6916 39.9336 24.7062 39.7597C24.7208 39.5568 24.6185 39.3538 24.414 39.1799L21.1851 36.4548C20.9367 36.2519 20.5715 36.1215 20.2208 36.1215Z" fill="#47A7D5"/>
<path opacity="0.7" d="M31.5001 29.6422C31.2517 29.6422 31.0326 29.7002 30.8572 29.8016L27.3946 31.7874C27.2046 31.9034 27.0878 32.0628 27.0732 32.2368C27.0585 32.4397 27.1608 32.6426 27.3507 32.8021L30.5796 35.5271C30.828 35.7446 31.1933 35.8605 31.5585 35.8605C31.7923 35.8605 32.0115 35.8025 32.1868 35.7011L35.6495 33.7153C35.8394 33.5993 35.9563 33.4399 35.9855 33.2659C36.0001 33.063 35.8978 32.8601 35.6933 32.6861L32.4644 29.9611C32.216 29.7581 31.8654 29.6277 31.5001 29.6277V29.6422Z" fill="#47A7D5"/>
<path opacity="0.7" d="M25.8604 32.8891C25.612 32.8891 25.3929 32.9471 25.2176 33.0485L21.7549 35.0344C21.5504 35.1503 21.4335 35.3098 21.4189 35.4982C21.4042 35.7011 21.5065 35.8896 21.6965 36.0635L24.9254 38.7885C25.1737 39.006 25.539 39.1219 25.9042 39.1219C26.1526 39.1219 26.3718 39.064 26.5471 38.9625L30.0098 36.9767C30.1997 36.8607 30.3166 36.7013 30.3458 36.5273C30.3604 36.3244 30.2581 36.1215 30.0536 35.9475L26.8247 33.2225C26.5763 33.0196 26.2257 32.8891 25.8604 32.8891Z" fill="#47A7D5"/>
<path opacity="0.7" d="M62.4301 35.1648C62.6785 35.1648 62.8976 35.1068 63.0583 35.0199L66.521 33.0341C66.7109 32.9181 66.8278 32.7586 66.8424 32.5847C66.857 32.3818 66.7548 32.1788 66.5502 32.0049L63.3213 29.2799C63.0729 29.0769 62.7077 28.9465 62.357 28.9465C62.1233 28.9465 61.9041 29.0045 61.7288 29.1059L58.2661 31.0917C58.0762 31.2077 57.9447 31.3671 57.9301 31.5556C57.9155 31.7585 58.0177 31.9469 58.2077 32.1209L61.4366 34.8459C61.685 35.0489 62.0502 35.1793 62.4155 35.1793L62.4301 35.1648Z" fill="#47A7D5"/>
<path opacity="0.7" d="M56.7905 38.4117C57.0242 38.4117 57.258 38.3537 57.4333 38.2522L60.896 36.2664C61.0859 36.1505 61.2028 35.991 61.2174 35.8171C61.232 35.6141 61.1298 35.4112 60.9252 35.2373L57.6963 32.5122C57.4479 32.3093 57.0827 32.1788 56.732 32.1788C56.4983 32.1788 56.2791 32.2368 56.1038 32.3383L52.6411 34.3241C52.4366 34.44 52.3197 34.5995 52.3051 34.7734C52.2905 34.9764 52.3928 35.1648 52.5827 35.3387L55.8116 38.0638C56.06 38.2667 56.4252 38.3972 56.7905 38.3972V38.4117Z" fill="#47A7D5"/>
<path opacity="0.7" d="M37.1395 26.4099C36.8911 26.4099 36.672 26.4678 36.4966 26.5693L33.034 28.5551C32.8441 28.6711 32.7272 28.8305 32.7126 29.0045C32.6979 29.2074 32.8002 29.4103 32.9902 29.5698L36.2191 32.2948C36.4674 32.5122 36.8327 32.6282 37.1979 32.6282C37.4317 32.6282 37.6509 32.5702 37.8262 32.4832L41.2889 30.4974C41.4934 30.3815 41.6103 30.222 41.6249 30.0481C41.6395 29.8452 41.5372 29.6422 41.3327 29.4683L38.1038 26.7432C37.8554 26.5403 37.4902 26.4099 37.1395 26.4099Z" fill="#47A7D5"/>
<path opacity="0.7" d="M49.1931 42.7746C49.4268 42.7746 49.646 42.7166 49.8213 42.6297L53.284 40.6439C53.4739 40.5279 53.5908 40.3685 53.62 40.1945C53.6346 39.9916 53.5324 39.7887 53.3278 39.6147L50.0989 36.8897C49.8505 36.6867 49.4999 36.5563 49.1346 36.5563C48.8862 36.5563 48.6671 36.6143 48.4918 36.7157L45.0291 38.7015C44.8392 38.8175 44.7223 38.9769 44.7077 39.1509C44.6931 39.3538 44.7953 39.5567 44.9853 39.7162L48.2142 42.4412C48.4625 42.6587 48.8278 42.7746 49.1931 42.7746Z" fill="#47A7D5"/>
<path opacity="0.7" d="M44.7225 22.0323C44.4887 22.0323 44.2696 22.0903 44.0943 22.1918L40.6316 24.1776C40.4271 24.2936 40.3102 24.453 40.2956 24.6414C40.281 24.8299 40.3832 25.0328 40.5732 25.2067L43.8021 27.9318C44.0504 28.1492 44.4157 28.2652 44.781 28.2652C45.0147 28.2652 45.2485 28.2072 45.4238 28.1057L48.8865 26.1199C49.0764 26.004 49.1933 25.8445 49.2079 25.6706C49.2225 25.4677 49.1202 25.2647 48.9157 25.0908L45.6868 22.3657C45.4384 22.1628 45.0732 22.0323 44.7225 22.0323Z" fill="#47A7D5"/>
<path opacity="0.7" d="M51.3409 19.1334C51.0925 18.9304 50.7272 18.8 50.3766 18.8C50.1428 18.8 49.9236 18.858 49.7483 18.9594L46.2857 20.9452C46.0811 21.0612 45.9642 21.2206 45.9496 21.4091C45.935 21.612 46.0373 21.8004 46.2272 21.9744L49.4561 24.6994C49.7045 24.9169 50.0697 25.0328 50.435 25.0328C50.6834 25.0328 50.9025 24.9748 51.0779 24.8734L54.5405 22.8876C54.7305 22.7716 54.8473 22.6122 54.862 22.4382C54.8766 22.2353 54.7743 22.0324 54.5697 21.8584L51.3409 19.1334Z" fill="#47A7D5"/>
<path opacity="0.7" d="M56.5859 23.5688C56.3376 23.3514 55.9723 23.2354 55.607 23.2354C55.3733 23.2354 55.1541 23.2934 54.9788 23.3949L51.5161 25.3807C51.3262 25.4966 51.2093 25.6561 51.1801 25.83C51.1655 26.0329 51.2677 26.2359 51.4723 26.4098L54.7012 29.1349C54.9496 29.3378 55.3002 29.4682 55.6655 29.4682C55.9139 29.4682 56.133 29.4103 56.3083 29.3088L59.771 27.323C59.9609 27.207 60.0778 27.0476 60.0924 26.8736C60.107 26.6707 60.0048 26.4678 59.8148 26.3083L56.5859 23.5833V23.5688Z" fill="#47A7D5"/>
<path opacity="0.7" d="M43.1591 53.6894C43.4075 53.6894 43.6267 53.6314 43.802 53.5299L47.2646 51.5441C47.4546 51.4282 47.5861 51.2687 47.6007 51.0803C47.6153 50.8774 47.513 50.6889 47.3231 50.515L44.0942 47.7899C43.8458 47.5725 43.4806 47.4565 43.1153 47.4565C42.8669 47.4565 42.6478 47.5145 42.4724 47.616L39.0098 49.6018C38.8198 49.7178 38.703 49.8772 38.6737 50.0511C38.6591 50.2541 38.7614 50.457 38.9659 50.6309L42.1948 53.356C42.4432 53.5589 42.7939 53.6894 43.1591 53.6894Z" fill="#47A7D5"/>
<path opacity="0.7" d="M37.5195 56.9362C37.7679 56.9362 37.987 56.8783 38.1623 56.7768L41.625 54.791C41.8149 54.675 41.9318 54.5156 41.9464 54.3416C41.961 54.1387 41.8588 53.9358 41.6688 53.7763L38.4399 51.0513C38.1916 50.8339 37.8263 50.7179 37.461 50.7179C37.2273 50.7179 37.0081 50.7759 36.8328 50.8628L33.3701 52.8487C33.1802 52.9646 33.0633 53.1241 33.0341 53.298C33.0195 53.5009 33.1217 53.7039 33.3263 53.8778L36.5552 56.6028C36.8036 56.8058 37.1688 56.9362 37.5195 56.9362Z" fill="#47A7D5"/>
<path opacity="0.7" d="M50.0261 32.7006C50.2744 32.7006 50.4936 32.6427 50.6689 32.5412L54.1316 30.5554C54.3215 30.4394 54.4384 30.28 54.453 30.106C54.4676 29.9031 54.3654 29.7002 54.1754 29.5407L50.9465 26.8157C50.6981 26.5983 50.3329 26.4823 49.9676 26.4823C49.7339 26.4823 49.5147 26.5403 49.3394 26.6417L45.8767 28.6276C45.6722 28.7435 45.5553 28.903 45.5407 29.0769C45.5261 29.2798 45.6283 29.4828 45.8329 29.6567L49.0618 32.3817C49.3102 32.5847 49.6754 32.7151 50.0261 32.7151V32.7006Z" fill="#47A7D5"/>
<path opacity="0.7" d="M36.7452 34.0776C36.4968 34.0776 36.2777 34.1356 36.1024 34.2371L32.6397 36.2229C32.4498 36.3389 32.3329 36.4983 32.3183 36.6722C32.3037 36.8752 32.4059 37.0781 32.6105 37.252L35.8394 39.9771C36.0877 40.18 36.453 40.3105 36.8037 40.3105C37.0374 40.3105 37.2566 40.2525 37.4319 40.151L40.8946 38.1652C41.0845 38.0493 41.216 37.8898 41.2306 37.7014C41.2452 37.4984 41.1429 37.31 40.953 37.1361L37.7241 34.411C37.4757 34.2081 37.1105 34.0776 36.7452 34.0776Z" fill="#47A7D5"/>
<path opacity="0.7" d="M42.3846 30.8453C42.1362 30.8453 41.9171 30.9033 41.7418 31.0047L38.2791 32.9905C38.0892 33.1065 37.9723 33.2659 37.9577 33.4399C37.9431 33.6428 38.0453 33.8457 38.2499 34.0197L41.4788 36.7447C41.7272 36.9477 42.0924 37.0781 42.4431 37.0781C42.6768 37.0781 42.896 37.0201 43.0713 36.9187L46.534 34.9329C46.7385 34.8169 46.8554 34.6575 46.87 34.469C46.8846 34.2661 46.7823 34.0777 46.5924 33.9037L43.3635 31.1787C43.1151 30.9612 42.7499 30.8453 42.3846 30.8453Z" fill="#47A7D5"/>
<path opacity="0.7" d="M31.1055 37.3245C30.8572 37.3245 30.638 37.3825 30.4627 37.484L27 39.4698C26.8101 39.5857 26.6932 39.7452 26.664 39.9191C26.6494 40.1221 26.7516 40.325 26.9562 40.4989L30.1851 43.224C30.4335 43.4269 30.7841 43.5574 31.1494 43.5574C31.3977 43.5574 31.6169 43.4994 31.7922 43.3979L35.2549 41.4121C35.4448 41.2961 35.5763 41.1367 35.5909 40.9483C35.6055 40.7453 35.5033 40.5569 35.3133 40.383L32.0844 37.6579C31.836 37.4405 31.4708 37.3245 31.1055 37.3245Z" fill="#47A7D5"/>
<path opacity="0.7" d="M25.4659 40.5714C25.2322 40.5714 25.013 40.6294 24.8377 40.7309L21.375 42.7167C21.1851 42.8326 21.0682 42.9921 21.039 43.166C21.0244 43.3689 21.1266 43.5719 21.3312 43.7458L24.5601 46.4709C24.8085 46.6738 25.1591 46.8042 25.5244 46.8042C25.7727 46.8042 25.9919 46.7463 26.1672 46.6448L29.6299 44.659C29.8198 44.543 29.9367 44.3836 29.9513 44.2096C29.9659 44.0067 29.8636 43.8038 29.6737 43.6443L26.4448 40.9193C26.1964 40.7019 25.8312 40.5859 25.4659 40.5859V40.5714Z" fill="#47A7D5"/>
<path opacity="0.7" d="M79.7143 33.9182C79.6997 34.1211 79.8019 34.3241 80.0065 34.498L83.2354 37.2231C83.4837 37.426 83.849 37.5564 84.1997 37.5564C84.4334 37.5564 84.6526 37.4985 84.8279 37.397L88.2906 35.4112C88.4951 35.2952 88.612 35.1358 88.6266 34.9473C88.6412 34.7444 88.5389 34.556 88.349 34.382L85.1201 31.657C84.8717 31.4396 84.5065 31.3236 84.1412 31.3236C83.9074 31.3236 83.6883 31.3816 83.4984 31.4831L80.0357 33.4689C79.8458 33.5848 79.7289 33.7443 79.7143 33.9182Z" fill="#47A7D5"/>
<path opacity="0.7" d="M37.914 49.2539C38.1624 49.2539 38.3815 49.1959 38.5422 49.0944L42.0049 47.1086C42.1948 46.9927 42.3117 46.8332 42.3263 46.6593C42.3409 46.4564 42.2386 46.2534 42.0487 46.0795L38.8198 43.3544C38.5714 43.1515 38.2062 43.0211 37.8555 43.0211C37.6072 43.0211 37.388 43.079 37.2127 43.1805L33.75 45.1663C33.5601 45.2823 33.4286 45.4417 33.414 45.6301C33.3994 45.8331 33.5016 46.036 33.6916 46.1955L36.9205 48.9205C37.1688 49.1234 37.5341 49.2539 37.8994 49.2539H37.914Z" fill="#47A7D5"/>
<path opacity="0.7" d="M32.289 52.5008C32.5374 52.5008 32.7565 52.4428 32.9172 52.3558L36.3799 50.37C36.5698 50.254 36.6867 50.0946 36.7013 49.9206C36.7159 49.7177 36.6136 49.5148 36.4091 49.3408L33.1802 46.6158C32.9318 46.4129 32.5666 46.2824 32.2159 46.2824C31.9822 46.2824 31.763 46.3404 31.5877 46.4419L28.125 48.4277C27.9351 48.5436 27.8036 48.7031 27.789 48.877C27.7744 49.0799 27.8766 49.2684 28.0666 49.4423L31.2955 52.1674C31.5438 52.3703 31.9091 52.5008 32.2744 52.5008H32.289Z" fill="#47A7D5"/>
<path opacity="0.7" d="M48.8134 50.457C49.0472 50.457 49.2663 50.399 49.4417 50.2975L52.9043 48.3117C53.0943 48.1957 53.2258 48.0363 53.2404 47.8479C53.255 47.6449 53.1527 47.4565 52.9628 47.2826L49.7339 44.5575C49.4855 44.3546 49.1202 44.2241 48.755 44.2241C48.5066 44.2241 48.2874 44.2821 48.1121 44.3836L44.6495 46.3694C44.4595 46.4853 44.3426 46.6448 44.328 46.8187C44.3134 47.0216 44.4157 47.2246 44.6202 47.3985L47.8491 50.1236C48.0975 50.3265 48.4628 50.457 48.8134 50.457Z" fill="#47A7D5"/>
<path opacity="0.7" d="M43.5683 46.007C43.8021 46.007 44.0212 45.9491 44.1966 45.8621L47.6592 43.8763C47.8492 43.7603 47.966 43.6009 47.9806 43.4269C47.9953 43.224 47.893 43.0211 47.7031 42.8471L44.4742 40.1221C44.2258 39.9192 43.8751 39.7887 43.5099 39.7887C43.2615 39.7887 43.0423 39.8467 42.867 39.9481L39.4043 41.934C39.2144 42.0499 39.0975 42.2094 39.0829 42.3833C39.0683 42.5862 39.1706 42.7892 39.3605 42.9486L42.5894 45.6737C42.8378 45.8911 43.203 46.007 43.5683 46.007Z" fill="#47A7D5"/>
<path opacity="0.7" d="M50.2305 9.32029C50.4789 9.52322 50.8441 9.65367 51.1948 9.65367C51.4285 9.65367 51.6477 9.59569 51.823 9.49423L55.2857 7.50842C55.4902 7.39246 55.6071 7.23301 55.6217 7.04458C55.6363 6.85614 55.5341 6.65321 55.3441 6.47927L52.1152 3.75422C51.8668 3.5368 51.5016 3.42084 51.1363 3.42084C50.9026 3.42084 50.6688 3.47882 50.4935 3.58028L47.0308 5.56609C46.8409 5.68205 46.724 5.8415 46.7094 6.01544C46.6948 6.21837 46.797 6.4213 47.0016 6.59524L50.2305 9.32029Z" fill="#47A7D5"/>
<path opacity="0.7" d="M38.9512 15.814C39.1996 16.017 39.5503 16.1474 39.9155 16.1474C40.1639 16.1474 40.383 16.0894 40.5584 15.988L44.021 14.0022C44.211 13.8862 44.3279 13.7268 44.3425 13.5528C44.3571 13.3499 44.2548 13.147 44.0649 12.9875L40.836 10.2625C40.5876 10.045 40.2223 9.92908 39.8571 9.92908C39.6233 9.92908 39.4042 9.98706 39.2288 10.074L35.7662 12.0598C35.5762 12.1758 35.4593 12.3352 35.4447 12.5092C35.4301 12.7121 35.5324 12.915 35.7223 13.089L38.9512 15.814Z" fill="#47A7D5"/>
<path opacity="0.7" d="M44.5909 12.5671C44.8393 12.77 45.2045 12.9005 45.5552 12.9005C45.7889 12.9005 46.0081 12.8425 46.1834 12.7411L49.6461 10.7552C49.836 10.6393 49.9675 10.4798 49.9821 10.2914C49.9967 10.0885 49.8944 9.90004 49.7045 9.7261L46.4756 7.00105C46.2272 6.79812 45.862 6.66766 45.4967 6.66766C45.2483 6.66766 45.0292 6.72564 44.8685 6.81261L41.4058 8.79842C41.2159 8.91438 41.099 9.07383 41.0844 9.24777C41.0698 9.4507 41.172 9.65363 41.3766 9.82757L44.6055 12.5526L44.5909 12.5671Z" fill="#47A7D5"/>
<path opacity="0.7" d="M33.3118 19.0464C33.5602 19.2493 33.9254 19.3798 34.2761 19.3798C34.5244 19.3798 34.7436 19.3218 34.9189 19.2203L38.3816 17.2345C38.5715 17.1186 38.6884 16.9591 38.703 16.7852C38.7176 16.5822 38.6154 16.3938 38.4254 16.2199L35.1965 13.4948C34.9481 13.2774 34.5829 13.1614 34.2176 13.1614C33.9839 13.1614 33.7647 13.2194 33.5894 13.3064L30.1267 15.2922C29.9368 15.4082 29.8199 15.5676 29.7907 15.7415C29.7761 15.9445 29.8783 16.1474 30.0829 16.3213L33.3118 19.0464Z" fill="#47A7D5"/>
<path opacity="0.7" d="M14.4352 29.9031C14.6835 30.106 15.0342 30.2365 15.3994 30.2365C15.6478 30.2365 15.867 30.1785 16.0423 30.0771L19.505 28.0912C19.7095 27.9753 19.8264 27.8158 19.841 27.6274C19.8556 27.4245 19.7533 27.236 19.5634 27.0621L16.3345 24.337C16.0861 24.1341 15.7209 24.0037 15.3556 24.0037C15.1072 24.0037 14.8881 24.0616 14.7274 24.1631L11.2647 26.1489C11.0748 26.2649 10.9579 26.4243 10.9433 26.5983C10.9287 26.8012 11.0309 27.0041 11.2209 27.1781L14.4498 29.9031H14.4352Z" fill="#47A7D5"/>
<path opacity="0.7" d="M20.0892 26.6562C20.3375 26.8592 20.7028 26.9896 21.0535 26.9896C21.2872 26.9896 21.5064 26.9316 21.6817 26.8302L25.1444 24.8444C25.3343 24.7284 25.4658 24.569 25.4804 24.3805C25.495 24.1776 25.3927 23.9892 25.2028 23.8152L21.9739 21.0902C21.7255 20.8872 21.3603 20.7568 20.995 20.7568C20.7466 20.7568 20.5275 20.8148 20.3668 20.9017L16.9041 22.8875C16.7142 23.0035 16.5973 23.1629 16.5827 23.3369C16.5681 23.5398 16.6703 23.7427 16.8749 23.9167L20.1038 26.6417L20.0892 26.6562Z" fill="#47A7D5"/>
<path opacity="0.7" d="M25.7144 23.4094C25.9627 23.6123 26.328 23.7428 26.6787 23.7428C26.9124 23.7428 27.1316 23.6848 27.3069 23.5833L30.7696 21.5975C30.9741 21.4816 31.091 21.3221 31.1056 21.1337C31.1202 20.9308 31.0179 20.7423 30.828 20.5684L27.5991 17.8433C27.3507 17.6259 26.9855 17.5099 26.6202 17.5099C26.3864 17.5099 26.1527 17.5679 25.9774 17.6694L22.5147 19.6552C22.3248 19.7712 22.2079 19.9306 22.1933 20.1045C22.1787 20.3075 22.2809 20.5104 22.4855 20.6843L25.7144 23.4094Z" fill="#47A7D5"/>
<path opacity="0.7" d="M62.474 19.3363C62.4594 19.5392 62.5617 19.7422 62.7662 19.9161L65.9951 22.6411C66.2435 22.8441 66.6088 22.9745 66.9594 22.9745C67.1932 22.9745 67.4123 22.9166 67.5877 22.8151L71.0503 20.8293C71.2549 20.7133 71.3718 20.5539 71.3864 20.3654C71.401 20.1625 71.2987 19.9741 71.1088 19.8001L67.8799 17.0751C67.6315 16.8577 67.2662 16.7417 66.901 16.7417C66.6526 16.7417 66.4334 16.7997 66.2581 16.9011L62.7955 18.887C62.6055 19.0029 62.4886 19.1624 62.474 19.3363Z" fill="#47A7D5"/>
<path opacity="0.7" d="M74.4691 29.4828C74.4545 29.6857 74.5568 29.8886 74.7614 30.0626L77.9903 32.7876C78.2386 32.9906 78.6039 33.121 78.9545 33.121C79.1883 33.121 79.4075 33.063 79.5828 32.9616L83.0454 30.9758C83.25 30.8598 83.3669 30.7004 83.3815 30.5119C83.3961 30.309 83.2938 30.1206 83.1039 29.9466L79.875 27.2216C79.6266 27.0041 79.2614 26.8882 78.8961 26.8882C78.6477 26.8882 78.4286 26.9462 78.2532 27.0476L74.7906 29.0334C74.6006 29.1494 74.4838 29.3088 74.4691 29.4828Z" fill="#47A7D5"/>
<path opacity="0.7" d="M69.224 25.0473C69.2094 25.2502 69.3117 25.4532 69.5016 25.6126L72.7305 28.3377C72.9789 28.5551 73.3442 28.671 73.7094 28.671C73.9432 28.671 74.1623 28.6131 74.3377 28.5261L77.8003 26.5403C77.9903 26.4243 78.1071 26.2649 78.1364 26.0909C78.151 25.888 78.0487 25.6851 77.8442 25.5111L74.6153 22.7861C74.3669 22.5832 74.0162 22.4527 73.651 22.4527C73.4026 22.4527 73.1834 22.5107 73.0081 22.6121L69.5455 24.598C69.3555 24.7139 69.2386 24.8734 69.224 25.0473Z" fill="#47A7D5"/>
<path opacity="0.7" d="M78.56 40.8033C78.7938 40.8033 79.013 40.7454 79.1883 40.6439L82.651 38.6581C82.8409 38.5421 82.9724 38.3827 82.987 38.1942C83.0016 37.9913 82.8993 37.8029 82.7094 37.6289L79.4805 34.9039C79.2321 34.7009 78.8669 34.5705 78.5016 34.5705C78.2532 34.5705 78.0341 34.6285 77.8734 34.7299L74.4107 36.7157C74.2208 36.8317 74.1039 36.9912 74.0893 37.1651C74.0747 37.368 74.1769 37.571 74.3815 37.7449L77.6104 40.4699C77.8587 40.6729 78.224 40.8033 78.5747 40.8033H78.56Z" fill="#47A7D5"/>
<path opacity="0.7" d="M51.9692 10.4654C51.9545 10.6683 52.0568 10.8568 52.2467 11.0307L55.4756 13.7557C55.724 13.9732 56.0893 14.0891 56.4545 14.0891C56.6883 14.0891 56.9075 14.0311 57.0828 13.9442L60.5454 11.9584C60.7354 11.8424 60.8523 11.683 60.8815 11.509C60.8961 11.3061 60.7938 11.1032 60.5893 10.9292L57.3604 8.20417C57.112 8.00124 56.7467 7.87079 56.3961 7.87079C56.1477 7.87079 55.9286 7.92877 55.7532 8.03023L52.2906 10.016C52.1006 10.132 51.9838 10.2914 51.9692 10.4654Z" fill="#47A7D5"/>
<path opacity="0.7" d="M57.2143 14.9008C57.1997 15.1037 57.3019 15.3067 57.4919 15.4661L60.7208 18.1912C60.9691 18.4086 61.3344 18.5246 61.6997 18.5246C61.9334 18.5246 62.1526 18.4666 62.3279 18.3796L65.7906 16.3938C65.9951 16.2778 66.112 16.1184 66.1266 15.9444C66.1412 15.7415 66.0389 15.5386 65.8344 15.3647L62.6055 12.6396C62.3571 12.4367 61.9919 12.3062 61.6412 12.3062C61.3928 12.3062 61.1737 12.3642 60.9984 12.4657L57.5357 14.4515C57.3458 14.5674 57.2289 14.7269 57.2143 14.9008Z" fill="#47A7D5"/>
<path opacity="0.7" d="M8.79547 33.1355C9.04384 33.3384 9.39449 33.4689 9.75975 33.4689C10.0081 33.4689 10.2273 33.4109 10.4026 33.3094L13.8653 31.3236C14.0552 31.2077 14.1721 31.0482 14.1867 30.8743C14.2013 30.6714 14.099 30.4829 13.9091 30.309L10.6802 27.5839C10.4318 27.3665 10.0666 27.2505 9.70131 27.2505C9.46755 27.2505 9.24839 27.3085 9.07307 27.3955L5.6104 29.3813C5.42047 29.4973 5.30358 29.6567 5.28897 29.8307C5.27436 30.0336 5.37664 30.2365 5.56657 30.4105L8.79547 33.1355Z" fill="#47A7D5"/>
<path opacity="0.7" d="M79.086 42.5862C78.8376 42.3688 78.4723 42.2528 78.1071 42.2528C77.8733 42.2528 77.6542 42.3108 77.4788 42.3978L74.0162 44.3836C73.8262 44.4995 73.7093 44.659 73.6947 44.8329C73.6801 45.0358 73.7824 45.2388 73.9723 45.4127L77.2012 48.1378C77.4496 48.3407 77.8149 48.4711 78.1801 48.4711C78.4285 48.4711 78.6477 48.4132 78.8084 48.3262L82.271 46.3404C82.461 46.2244 82.5779 46.0795 82.5925 45.891C82.6071 45.6881 82.5048 45.4852 82.3003 45.3112L79.0714 42.5862H79.086Z" fill="#47A7D5"/>
<path opacity="0.7" d="M54.5845 56.6753C54.3361 56.4724 53.9709 56.3419 53.6056 56.3419C53.3572 56.3419 53.1381 56.3999 52.9774 56.5014L49.5147 58.4872C49.3248 58.6031 49.2079 58.7626 49.1933 58.9365C49.1787 59.1394 49.2809 59.3424 49.4709 59.5163L52.6998 62.2414C52.9481 62.4443 53.3134 62.5748 53.6787 62.5748C53.927 62.5748 54.1462 62.5168 54.3069 62.4153L57.7696 60.4295C57.9595 60.3135 58.0764 60.1541 58.091 59.9802C58.1056 59.7772 58.0033 59.5743 57.8134 59.4004L54.5845 56.6753Z" fill="#47A7D5"/>
<path opacity="0.7" d="M60.2242 53.4429C59.9758 53.24 59.6105 53.1096 59.2453 53.1096C58.9969 53.1096 58.7777 53.1675 58.617 53.269L55.1543 55.2548C54.9644 55.3708 54.8475 55.5302 54.8329 55.7042C54.8183 55.9071 54.9206 56.11 55.1251 56.284L58.354 59.009C58.6024 59.2264 58.9677 59.3424 59.3329 59.3424C59.5667 59.3424 59.7858 59.2844 59.9612 59.1974L63.4238 57.2116C63.6138 57.0957 63.7306 56.9362 63.7453 56.7623C63.7599 56.5594 63.6576 56.3564 63.4677 56.1825L60.2388 53.4574L60.2242 53.4429Z" fill="#47A7D5"/>
<path opacity="0.7" d="M65.8635 50.1961C65.6151 49.9931 65.2499 49.8627 64.8846 49.8627C64.6509 49.8627 64.4171 49.9206 64.2418 50.0221L60.7791 52.0079C60.5892 52.1239 60.4723 52.2833 60.4577 52.4573C60.4431 52.6602 60.5453 52.8631 60.7499 53.0371L63.9788 55.7621C64.2272 55.9795 64.5924 56.0955 64.9577 56.0955C65.1914 56.0955 65.4106 56.0375 65.5859 55.9506L69.0486 53.9647C69.2385 53.8488 69.3554 53.6893 69.3846 53.5154C69.3992 53.3125 69.297 53.1095 69.0924 52.9356L65.8635 50.2105V50.1961Z" fill="#47A7D5"/>
<path opacity="0.7" d="M93.5941 38.832L90.3652 36.1069C90.1168 35.904 89.7516 35.7736 89.3863 35.7736C89.1526 35.7736 88.9188 35.8315 88.7435 35.933L85.2808 37.9188C85.0909 38.0348 84.974 38.1942 84.9594 38.3682C84.9448 38.5711 85.047 38.774 85.2516 38.948L88.4805 41.673C88.7289 41.8904 89.0941 42.0064 89.4594 42.0064C89.6931 42.0064 89.9123 41.9484 90.0876 41.8614L93.5503 39.8756C93.7402 39.7597 93.8571 39.6002 93.8863 39.4263C93.9009 39.2234 93.7987 39.0204 93.5941 38.8465V38.832Z" fill="#47A7D5"/>
<path opacity="0.7" d="M84.7403 39.3538C84.4919 39.1509 84.1266 39.0204 83.7614 39.0204C83.513 39.0204 83.2938 39.0784 83.1331 39.1799L79.6705 41.1657C79.4805 41.2817 79.3636 41.4411 79.349 41.615C79.3344 41.818 79.4367 42.0209 79.6412 42.1948L82.8701 44.9199C83.1185 45.1373 83.4838 45.2533 83.849 45.2533C84.0828 45.2533 84.3019 45.1953 84.4773 45.1083L87.9399 43.1225C88.1299 43.0066 88.2468 42.8471 88.2614 42.6732C88.276 42.4702 88.1737 42.2673 87.9838 42.0934L84.7549 39.3683L84.7403 39.3538Z" fill="#47A7D5"/>
<path opacity="0.7" d="M72.9204 44.0357C73.1688 44.0357 73.3879 43.9777 73.5633 43.8763L77.0259 41.8905C77.2159 41.7745 77.3327 41.6151 77.3473 41.4411C77.362 41.2382 77.2597 41.0353 77.0698 40.8758L73.8409 38.1508C73.5925 37.9333 73.2272 37.8174 72.862 37.8174C72.6282 37.8174 72.409 37.8754 72.2337 37.9623L68.771 39.9481C68.5811 40.0641 68.4642 40.2235 68.4496 40.3975C68.435 40.6004 68.5373 40.8033 68.7272 40.9773L71.9561 43.7023C72.2045 43.9053 72.5551 44.0357 72.9204 44.0357Z" fill="#47A7D5"/>
<path opacity="0.7" d="M73.4465 45.8331C73.1981 45.6157 72.8329 45.4997 72.4676 45.4997C72.2339 45.4997 72.0147 45.5577 71.8394 45.6446L68.3767 47.6305C68.1868 47.7464 68.0553 47.9059 68.0407 48.0798C68.0261 48.2827 68.1283 48.4857 68.3329 48.6596L71.5618 51.3847C71.8102 51.5876 72.1754 51.718 72.5407 51.718C72.7744 51.718 73.0082 51.6601 73.1835 51.5586L76.6462 49.5728C76.8361 49.4568 76.953 49.2974 76.9676 49.1234C76.9822 48.9205 76.88 48.7176 76.6754 48.5436L73.4465 45.8186V45.8331Z" fill="#47A7D5"/>
<path opacity="0.7" d="M48.9449 59.9222C48.6965 59.7048 48.3312 59.5888 47.966 59.5888C47.7322 59.5888 47.513 59.6468 47.3377 59.7338L43.8751 61.7196C43.6851 61.8355 43.5682 61.995 43.5536 62.1689C43.539 62.3718 43.6413 62.5748 43.8312 62.7487L47.0601 65.4738C47.3085 65.6767 47.6738 65.8071 48.039 65.8071C48.2874 65.8071 48.5065 65.7492 48.6673 65.6477L52.1299 63.6619C52.3199 63.5459 52.4367 63.3865 52.4514 63.2125C52.466 63.0096 52.3637 62.8067 52.1591 62.6327L48.9302 59.9077L48.9449 59.9222Z" fill="#47A7D5"/>
<path opacity="0.7" d="M39.4772 17.5969C39.2434 17.5969 39.0242 17.6549 38.8489 17.7563L35.3862 19.7421C35.1817 19.8581 35.0648 20.0176 35.0502 20.1915C35.0356 20.3944 35.1379 20.5829 35.3278 20.7568L38.5567 23.4818C38.8051 23.6848 39.1703 23.8152 39.5356 23.8152C39.7694 23.8152 40.0031 23.7573 40.1785 23.6558L43.6411 21.67C43.831 21.554 43.9479 21.3946 43.9625 21.2206C43.9772 21.0177 43.8749 20.8148 43.6703 20.6408L40.4414 17.9158C40.1931 17.7129 39.8278 17.5824 39.4772 17.5824V17.5969Z" fill="#47A7D5"/>
<path opacity="0.7" d="M51.7354 11.451C51.487 11.2481 51.1364 11.1176 50.7711 11.1176C50.5227 11.1176 50.3036 11.1756 50.1282 11.2771L46.6656 13.2629C46.4756 13.3788 46.3588 13.5383 46.3442 13.7122C46.3295 13.9151 46.4318 14.1181 46.6217 14.2775L49.8506 17.0026C50.099 17.22 50.4643 17.336 50.8295 17.336C51.0633 17.336 51.2825 17.278 51.4578 17.191L54.9205 15.2052C55.1104 15.0892 55.2273 14.9298 55.2419 14.7559C55.2565 14.5529 55.1542 14.35 54.9643 14.1761L51.7354 11.451Z" fill="#47A7D5"/>
<path opacity="0.7" d="M31.8944 21.9598C31.646 21.9598 31.4269 22.0178 31.2515 22.1193L27.7889 24.1051C27.5989 24.2211 27.4821 24.3805 27.4674 24.5544C27.4528 24.7574 27.5551 24.9603 27.745 25.1197L30.9739 27.8448C31.2223 28.0622 31.5876 28.1782 31.9528 28.1782C32.1866 28.1782 32.4058 28.1202 32.5811 28.0332L36.0437 26.0474C36.2337 25.9315 36.3506 25.772 36.3798 25.5981C36.3944 25.3951 36.2921 25.1922 36.0876 25.0183L32.8587 22.2932C32.6103 22.0903 32.2597 21.9598 31.8944 21.9598Z" fill="#47A7D5"/>
<path opacity="0.7" d="M45.1168 14.3645C44.883 14.3645 44.6639 14.4225 44.4886 14.5239L41.0259 16.5098C40.836 16.6257 40.7045 16.7852 40.6899 16.9736C40.6752 17.1765 40.7775 17.365 40.9675 17.5389L44.1963 20.264C44.4447 20.4669 44.81 20.5973 45.1752 20.5973C45.4236 20.5973 45.6428 20.5394 45.8035 20.4524L49.2662 18.4666C49.4561 18.3506 49.573 18.1912 49.5876 18.0172C49.6022 17.8143 49.4999 17.6114 49.2954 17.4374L46.0665 14.7124C45.8181 14.5095 45.4528 14.379 45.1022 14.379L45.1168 14.3645Z" fill="#47A7D5"/>
<path opacity="0.7" d="M26.255 25.2067C26.0066 25.2067 25.7875 25.2647 25.6121 25.3662L22.1495 27.352C21.9595 27.4679 21.8426 27.6274 21.828 27.8013C21.8134 28.0043 21.9157 28.2072 22.1056 28.3666L25.3345 31.0917C25.5829 31.3091 25.9482 31.4251 26.3134 31.4251C26.5472 31.4251 26.7664 31.3671 26.9417 31.2801L30.4043 29.2943C30.5943 29.1783 30.7112 29.0189 30.7258 28.845C30.7404 28.642 30.6381 28.4391 30.4482 28.2652L27.2193 25.5401C26.9709 25.3372 26.6202 25.2067 26.255 25.2067Z" fill="#47A7D5"/>
<path opacity="0.7" d="M14.9757 31.686C14.7419 31.686 14.5228 31.744 14.3474 31.8454L10.8848 33.8312C10.6802 33.9472 10.5634 34.1066 10.5487 34.2951C10.5341 34.498 10.6364 34.6864 10.8263 34.8604L14.0552 37.5854C14.3036 37.7884 14.6689 37.9188 15.0341 37.9188C15.2825 37.9188 15.5017 37.8608 15.6624 37.7594L19.125 35.7736C19.315 35.6576 19.4319 35.4981 19.4465 35.3242C19.4611 35.1213 19.3588 34.9183 19.1543 34.7444L15.9254 32.0194C15.677 31.8164 15.3117 31.686 14.9611 31.686H14.9757Z" fill="#47A7D5"/>
<path opacity="0.7" d="M20.6153 28.4536C20.3669 28.4536 20.1478 28.5116 19.9724 28.6131L16.5098 30.5989C16.3198 30.7148 16.1884 30.8743 16.1737 31.0627C16.1591 31.2656 16.2614 31.4541 16.4513 31.628L19.6802 34.3531C19.9286 34.556 20.2939 34.6864 20.6591 34.6864C20.9075 34.6864 21.1267 34.6285 21.2874 34.527L24.75 32.5412C24.94 32.4252 25.0569 32.2658 25.0715 32.0918C25.0861 31.8889 24.9838 31.686 24.7939 31.5121L21.565 28.787C21.3166 28.5841 20.9513 28.4536 20.6007 28.4536H20.6153Z" fill="#47A7D5"/>
<path opacity="0.7" d="M73.3149 36.3678C73.5487 36.3678 73.7678 36.3099 73.9431 36.2084L77.4058 34.2226C77.5957 34.1066 77.7272 33.9472 77.7418 33.7588C77.7564 33.5558 77.6542 33.3674 77.4642 33.1934L74.2353 30.4684C73.987 30.2655 73.6217 30.135 73.2564 30.135C73.0081 30.135 72.7889 30.193 72.6136 30.2945L69.1509 32.2803C68.961 32.3962 68.8441 32.5557 68.8295 32.7296C68.8149 32.9325 68.9172 33.1355 69.1217 33.3094L72.3506 36.0345C72.599 36.2374 72.9642 36.3678 73.3149 36.3678Z" fill="#47A7D5"/>
<path opacity="0.7" d="M67.6752 39.6002C67.9236 39.6002 68.1428 39.5423 68.3181 39.4408L71.7808 37.455C71.9707 37.339 72.0876 37.1796 72.1022 37.0056C72.1168 36.8027 72.0145 36.5998 71.8246 36.4403L68.5957 33.7153C68.3473 33.4979 67.9821 33.3819 67.6168 33.3819C67.383 33.3819 67.1639 33.4399 66.9885 33.5268L63.5259 35.5127C63.336 35.6286 63.2191 35.7881 63.1898 35.962C63.1752 36.1649 63.2775 36.3679 63.4821 36.5418L66.711 39.2669C66.9593 39.4698 67.31 39.6002 67.6752 39.6002Z" fill="#47A7D5"/>
<path opacity="0.7" d="M62.0358 42.8471C62.2842 42.8471 62.5034 42.7891 62.6787 42.6877L66.1414 40.7019C66.3313 40.5859 66.4482 40.4265 66.4628 40.2525C66.4774 40.0496 66.3751 39.8467 66.1852 39.6872L62.9563 36.9622C62.7079 36.7447 62.3427 36.6288 61.9774 36.6288C61.7436 36.6288 61.5245 36.6868 61.3492 36.7882L57.8865 38.774C57.6819 38.89 57.5651 39.0494 57.5504 39.2234C57.5358 39.4263 57.6381 39.6292 57.8427 39.8032L61.0715 42.5282C61.3199 42.7312 61.6852 42.8616 62.0358 42.8616V42.8471Z" fill="#47A7D5"/>
<path opacity="0.7" d="M62.2402 20.3219C61.9918 20.119 61.6266 19.9885 61.2613 19.9885C61.013 19.9885 60.7938 20.0465 60.6185 20.148L57.1558 22.1338C56.9659 22.2497 56.849 22.4092 56.8344 22.5831C56.8198 22.7861 56.922 22.989 57.1266 23.1629L60.3555 25.888C60.6039 26.0909 60.9691 26.2214 61.3198 26.2214C61.5535 26.2214 61.7727 26.1634 61.948 26.0619L65.4107 24.0761C65.6006 23.9601 65.7321 23.8007 65.7467 23.6123C65.7613 23.4093 65.6591 23.2209 65.4691 23.047L62.2402 20.3219Z" fill="#47A7D5"/>
<path opacity="0.7" d="M56.9805 15.8865C56.7321 15.6836 56.3815 15.5531 56.0162 15.5531C55.7678 15.5531 55.5487 15.6111 55.3734 15.7125L51.9107 17.6984C51.7208 17.8143 51.6039 17.9738 51.5893 18.1477C51.5747 18.3506 51.6769 18.5536 51.8669 18.713L55.0958 21.4381C55.3441 21.6555 55.7094 21.7714 56.0747 21.7714C56.3084 21.7714 56.5276 21.7135 56.7029 21.612L60.1656 19.6262C60.3555 19.5102 60.4724 19.3508 60.5016 19.1768C60.5162 18.9739 60.4139 18.771 60.2094 18.597L56.9805 15.872V15.8865Z" fill="#47A7D5"/>
<path opacity="0.7" d="M68.9756 26.033C68.7272 25.83 68.3766 25.6996 68.0113 25.6996C67.763 25.6996 67.5438 25.7576 67.3685 25.859L63.9058 27.8448C63.7159 27.9608 63.599 28.1202 63.5844 28.2942C63.5698 28.4971 63.672 28.7 63.862 28.8595L67.0909 31.5845C67.3393 31.802 67.7045 31.9179 68.0698 31.9179C68.3035 31.9179 68.5227 31.8599 68.698 31.773L72.1607 29.7872C72.3506 29.6712 72.4675 29.5118 72.4821 29.3378C72.4967 29.1349 72.3944 28.932 72.2045 28.758L68.9756 26.033Z" fill="#47A7D5"/>
<path opacity="0.7" d="M48.4043 58.1248C48.6527 58.1248 48.8719 58.0668 49.0472 57.9654L52.5098 55.9795C52.6998 55.8636 52.8313 55.7041 52.8459 55.5157C52.8605 55.3128 52.7582 55.1243 52.5683 54.9504L49.3394 52.2254C49.091 52.0224 48.7257 51.892 48.3605 51.892C48.1121 51.892 47.893 51.9499 47.7322 52.0514L44.2696 54.0372C44.0796 54.1532 43.9628 54.3126 43.9482 54.4866C43.9335 54.6895 44.0358 54.8924 44.2258 55.0664L47.4546 57.7914C47.703 57.9943 48.0537 58.1248 48.4189 58.1248H48.4043Z" fill="#47A7D5"/>
<path opacity="0.7" d="M67.281 47.2825C67.5293 47.2825 67.7485 47.2246 67.9238 47.1231L71.3865 45.1373C71.5764 45.0213 71.6933 44.8619 71.7079 44.688C71.7225 44.485 71.6202 44.2821 71.4303 44.1226L68.2014 41.3976C67.953 41.1802 67.5878 41.0642 67.2225 41.0642C66.9887 41.0642 66.7696 41.1222 66.5943 41.2092L63.1316 43.195C62.9417 43.3109 62.8248 43.4704 62.7956 43.6443C62.781 43.8472 62.8832 44.0502 63.0878 44.2241L66.3167 46.9492C66.565 47.1521 66.9303 47.2825 67.281 47.2825Z" fill="#47A7D5"/>
<path opacity="0.7" d="M59.6979 51.6456C59.9317 51.6456 60.1509 51.5876 60.3262 51.4861L63.7889 49.5003C63.9934 49.3843 64.1103 49.2249 64.1249 49.0365C64.1395 48.8335 64.0372 48.6451 63.8473 48.4712L60.6184 45.7461C60.37 45.5287 60.0048 45.4127 59.6395 45.4127C59.3911 45.4127 59.172 45.4707 58.9966 45.5722L55.534 47.558C55.344 47.6739 55.2272 47.8334 55.2126 48.0073C55.1979 48.2102 55.3002 48.4132 55.5048 48.5871L58.7337 51.3122C58.982 51.5151 59.3473 51.6456 59.6979 51.6456Z" fill="#47A7D5"/>
<path opacity="0.7" d="M54.0583 54.8924C54.2921 54.8924 54.5113 54.8345 54.6866 54.733L58.1492 52.7472C58.3392 52.6312 58.4707 52.4718 58.4853 52.2833C58.4999 52.0804 58.3976 51.892 58.2077 51.718L54.9788 48.993C54.7304 48.7901 54.3652 48.6596 53.9999 48.6596C53.7515 48.6596 53.5324 48.7176 53.3716 48.8191L49.909 50.8049C49.7191 50.9208 49.6022 51.0803 49.5876 51.2542C49.5729 51.4571 49.6752 51.6601 49.8798 51.834L53.1087 54.5591C53.357 54.762 53.7223 54.8924 54.0729 54.8924H54.0583Z" fill="#47A7D5"/>
<path opacity="0.7" d="M42.7793 61.3717C43.0277 61.3717 43.2468 61.3137 43.4221 61.2122L46.8848 59.2264C47.0747 59.1104 47.1916 58.951 47.2062 58.7771C47.2208 58.5741 47.1186 58.3712 46.9286 58.2118L43.6997 55.4867C43.4514 55.2693 43.0861 55.1533 42.7208 55.1533C42.4871 55.1533 42.2679 55.2113 42.0926 55.2983L38.6299 57.2841C38.44 57.4 38.3231 57.5595 38.3085 57.7334C38.2939 57.9364 38.3962 58.1393 38.5861 58.3132L41.815 61.0383C42.0634 61.2412 42.414 61.3717 42.7793 61.3717Z" fill="#47A7D5"/>
<path opacity="0.7" d="M54.4384 47.2101C54.6722 47.2101 54.8913 47.1521 55.0667 47.0507L58.5293 45.0649C58.7339 44.9489 58.8508 44.7895 58.8654 44.601C58.88 44.4126 58.7777 44.2097 58.5878 44.0357L55.3589 41.3107C55.1105 41.0933 54.7452 40.9773 54.38 40.9773C54.1462 40.9773 53.9124 41.0353 53.7371 41.1367L50.2745 43.1225C50.0845 43.2385 49.9676 43.398 49.953 43.5719C49.9384 43.7748 50.0407 43.9778 50.2452 44.1517L53.4741 46.8767C53.7225 47.0797 54.0878 47.2101 54.4384 47.2101Z" fill="#47A7D5"/>
<path d="M30.5649 84.5491C30.5649 85.1145 30.1705 85.3464 29.6737 85.0565C29.1769 84.7666 28.7825 84.0853 28.7825 83.52C28.7825 82.9547 29.1769 82.7228 29.6737 83.0127C30.1705 83.2881 30.5649 83.9838 30.5649 84.5491Z" fill="#DBDBDB"/>
<path d="M60.3994 67.4595C60.3994 68.0249 60.0049 68.2568 59.5082 67.9669C59.0114 67.677 58.6169 66.9957 58.6169 66.4304C58.6169 65.8651 59.0114 65.6332 59.5082 65.9231C60.0049 66.1985 60.3994 66.8942 60.3994 67.4595Z" fill="#DBDBDB"/>
<defs>
<linearGradient id="paint0_linear_164633_182935" x1="65.0601" y1="63.7344" x2="66.3896" y2="63.7344" gradientUnits="userSpaceOnUse">
<stop stop-color="#27262A"/>
<stop offset="0.6" stop-color="#2F2E33"/>
<stop offset="1" stop-color="#37373D"/>
</linearGradient>
<linearGradient id="paint1_linear_164633_182935" x1="61.5681" y1="28.4391" x2="65.3376" y2="28.4391" gradientUnits="userSpaceOnUse">
<stop stop-color="#27262A"/>
<stop offset="0.6" stop-color="#2F2E33"/>
<stop offset="1" stop-color="#37373D"/>
</linearGradient>
<linearGradient id="paint2_linear_164633_182935" x1="60.7354" y1="66.213" x2="62.0795" y2="66.213" gradientUnits="userSpaceOnUse">
<stop stop-color="#27262A"/>
<stop offset="0.6" stop-color="#2F2E33"/>
<stop offset="1" stop-color="#37373D"/>
</linearGradient>
<linearGradient id="paint3_linear_164633_182935" x1="35.3279" y1="80.7659" x2="36.672" y2="80.7659" gradientUnits="userSpaceOnUse">
<stop stop-color="#27262A"/>
<stop offset="0.6" stop-color="#2F2E33"/>
<stop offset="1" stop-color="#37373D"/>
</linearGradient>
<linearGradient id="paint4_linear_164633_182935" x1="31.8359" y1="45.4707" x2="35.62" y2="45.4707" gradientUnits="userSpaceOnUse">
<stop stop-color="#27262A"/>
<stop offset="0.6" stop-color="#2F2E33"/>
<stop offset="1" stop-color="#37373D"/>
</linearGradient>
<linearGradient id="paint5_linear_164633_182935" x1="31.0178" y1="83.23" x2="32.3474" y2="83.23" gradientUnits="userSpaceOnUse">
<stop stop-color="#27262A"/>
<stop offset="0.6" stop-color="#2F2E33"/>
<stop offset="1" stop-color="#37373D"/>
</linearGradient>
</defs>
</svg>
