<svg width="48" height="93" viewBox="0 0 48 93" fill="none" xmlns="http://www.w3.org/2000/svg">
<g clip-path="url(#clip0_164633_183057)">
<path d="M14.2218 93L0 84.8401V77.0621L14.2218 85.2221V93Z" fill="#B7B3A9"/>
<path d="M47.9999 73.613L14.2217 93V85.222L47.9999 65.8466V73.613Z" fill="#D1CEC4"/>
<path d="M14.2218 85.222L0 77.0621L33.7782 57.6866L48 65.8466L14.2218 85.222Z" fill="#EAE6DA"/>
<path opacity="0.7" d="M13.8724 83.5438L32.858 65.5688L33.7782 57.6866L0 77.0621L11.2982 83.5438H13.8724Z" fill="#B7B3A9"/>
<path d="M40.7784 38.3343C40.7784 37.2347 40.3824 36.4593 39.7534 36.1005L28.4435 29.5725C29.0725 29.9313 29.4685 30.7068 29.4685 31.8064L29.5267 54.168C29.5267 56.3787 27.9776 59.064 26.0441 60.1635L9.95866 69.3883C8.98026 69.9439 8.09504 70.0018 7.46606 69.6314L18.7759 76.1593C19.4166 76.5297 20.3018 76.4718 21.2685 75.9162L37.354 66.6915C39.2875 65.5803 40.8483 62.8951 40.8366 60.696L40.7784 38.3343Z" fill="url(#paint0_radial_164633_183057)"/>
<path d="M34.9312 7.859L23.6213 1.31948C26.3236 -0.231481 28.7696 -0.370373 30.5284 0.648171L41.8383 7.17611C40.0678 6.15757 37.6335 6.29646 34.9312 7.84742V7.859Z" fill="#F3F3F3"/>
<path d="M13.8373 83.6248L2.5274 77.0968L2.37598 24.6187L13.6859 31.1466L13.8373 83.6248Z" fill="#D3D3D3"/>
<path d="M23.3651 14.4911L12.0552 7.96317L23.6213 1.31949L34.9312 7.859L23.3651 14.4911Z" fill="#ECECEC"/>
<path d="M34.9311 7.85898C40.2891 4.7802 44.6569 7.24554 44.6686 13.3684L44.82 65.8465L13.8372 83.6248L13.6858 31.1466C13.6742 25.0238 17.9954 17.5699 23.365 14.4911L34.9428 7.84741L34.9311 7.85898ZM40.8482 60.7075L40.7899 38.3459C40.7899 36.1352 39.2175 35.2439 37.284 36.3551L21.1986 45.5798C19.265 46.691 17.7043 49.3878 17.7043 51.5869L17.7625 73.9486C17.7625 76.1593 19.3466 77.0389 21.2801 75.9278L37.3655 66.703C39.299 65.5919 40.8598 62.9067 40.8482 60.7075Z" fill="#E5E5E5"/>
<path d="M13.6859 31.1466L2.376 24.6187C2.36435 18.4958 6.68563 11.0419 12.0552 7.96317L23.3651 14.4911C18.0072 17.5699 13.6742 25.0238 13.6859 31.1466Z" fill="#F3F3F3"/>
<path d="M6.1384 63.2539C4.84551 61.7724 4.05347 59.9552 4.05347 58.4853C4.05347 56.2861 5.84721 55.5222 8.06026 56.7954C8.77077 57.2005 9.46963 57.7908 10.087 58.4968C11.3798 59.9784 12.1719 61.8071 12.1719 63.2655C12.1719 65.4646 10.3781 66.2169 8.16509 64.9553C7.45458 64.5502 6.75572 63.9599 6.1384 63.2539ZM9.92389 58.9135C9.39974 58.3117 8.78242 57.8024 8.16509 57.4436C6.19664 56.3093 4.58926 56.9806 4.58926 58.9367C4.58926 60.1751 5.22988 61.6451 6.30146 62.8719C6.82561 63.4738 7.44294 63.9831 8.06026 64.3419C10.0287 65.4762 11.6361 64.8049 11.6361 62.8488C11.6361 61.6103 10.9955 60.1404 9.92389 58.9135Z" fill="url(#paint1_radial_164633_183057)"/>
<path d="M7.94378 63.8326C7.89719 63.7632 7.86224 63.6822 7.87389 63.6359L8.42133 61.0779L7.17503 61.1242C7.17503 61.1242 7.12844 61.1011 7.10514 61.0779C7.0935 61.0664 7.08185 61.0432 7.0702 61.0201C7.03526 60.9622 7.01196 60.8928 7.01196 60.858L7.57105 57.7214L8.50286 58.1959C8.50286 58.1959 8.53781 58.2191 8.54945 58.2422C8.57275 58.2654 8.5844 58.3001 8.60769 58.3232C8.64264 58.3811 8.65428 58.439 8.64264 58.4621L7.88554 60.3719L9.08525 60.3256C9.08525 60.3256 9.13184 60.3488 9.15513 60.3719C9.16678 60.3835 9.19008 60.4066 9.20172 60.4298C9.23667 60.4992 9.25996 60.5687 9.24831 60.5918L8.08355 63.8789C8.08355 63.8789 8.03696 63.8905 7.99037 63.8442L7.96707 63.8211L7.94378 63.8326Z" fill="url(#paint2_radial_164633_183057)"/>
<path d="M8.65414 33.2995C8.51437 32.9869 8.328 32.686 8.1067 32.4314C7.92034 32.223 7.71068 32.0378 7.48937 31.9105C7.09335 31.679 6.73227 31.6675 6.47603 31.8064L5.14819 32.5703C5.40444 32.4198 5.76552 32.4429 6.16154 32.6744C6.38285 32.8018 6.5925 32.9754 6.77887 33.1953C7.00017 33.4499 7.18653 33.7509 7.32631 34.0634C7.47773 34.4106 7.57091 34.781 7.57091 35.1166C7.57091 35.568 7.40784 35.8805 7.15159 36.0194L8.47942 35.2555C8.73567 35.1051 8.88709 34.7925 8.89874 34.3527C8.89874 34.0171 8.80556 33.6467 8.65414 33.2995Z" fill="#48484D"/>
<path d="M6.14995 32.686C5.35791 32.2346 4.72893 32.605 4.71729 33.4962C4.71729 34.399 5.34626 35.487 6.1383 35.9384C6.91869 36.3898 7.55931 36.031 7.57096 35.1282C7.57096 34.237 6.94199 33.1374 6.14995 32.686Z" fill="#2B2B2D"/>
<path d="M8.65414 42.8367C8.51437 42.5242 8.328 42.2233 8.1067 41.9687C7.92034 41.7603 7.71068 41.5751 7.48937 41.4478C7.09335 41.2163 6.73227 41.2048 6.47603 41.3437L5.14819 42.1076C5.40444 41.9571 5.76552 41.9802 6.16154 42.2117C6.38285 42.339 6.5925 42.5127 6.77887 42.7326C7.00017 42.9872 7.18653 43.2881 7.32631 43.6006C7.47773 43.9479 7.57091 44.3183 7.57091 44.6539C7.57091 45.1053 7.40784 45.4178 7.15159 45.5567L8.47942 44.7928C8.73567 44.6423 8.88709 44.3298 8.89874 43.89C8.89874 43.5544 8.80556 43.184 8.65414 42.8367Z" fill="#48484D"/>
<path d="M6.14995 42.2233C5.35791 41.7719 4.72893 42.1423 4.71729 43.0335C4.71729 43.9363 5.34626 45.0243 6.1383 45.4757C6.91869 45.9271 7.55931 45.5683 7.57096 44.6655C7.57096 43.7743 6.94199 42.6747 6.14995 42.2233Z" fill="#2B2B2D"/>
<path d="M36.3873 26.6558L23.1555 34.2485C22.4916 34.6305 21.9558 34.399 21.9558 33.7508V26.1002C21.9558 25.4405 22.4916 24.6071 23.1555 24.2251L36.3873 16.6324C37.0512 16.2504 37.587 16.4819 37.587 17.1301V24.7807C37.587 25.4405 37.0512 26.2738 36.3873 26.6558Z" fill="url(#paint3_linear_164633_183057)"/>
<path d="M35.9213 18.8778L23.6331 25.9266V32.1652L35.9213 25.1164V18.8778Z" fill="url(#paint4_radial_164633_183057)"/>
<path opacity="0.6" d="M35.5719 19.0746V24.9196L23.6331 31.7716V32.1652L35.9213 25.1164V18.8778L35.5719 19.0746Z" fill="#221E1E"/>
</g>
<defs>
<radialGradient id="paint0_radial_164633_183057" cx="0" cy="0" r="1" gradientUnits="userSpaceOnUse" gradientTransform="translate(24.1572 52.9874) scale(20.4183 20.2899)">
<stop stop-color="#009CCD"/>
<stop offset="0.86" stop-color="#0085B5"/>
<stop offset="1" stop-color="#0081B1"/>
</radialGradient>
<radialGradient id="paint1_radial_164633_183057" cx="0" cy="0" r="1" gradientUnits="userSpaceOnUse" gradientTransform="translate(8.10685 60.8812) scale(4.40281 4.37511)">
<stop stop-color="#009CCD"/>
<stop offset="0.86" stop-color="#0085B5"/>
<stop offset="1" stop-color="#0081B1"/>
</radialGradient>
<radialGradient id="paint2_radial_164633_183057" cx="0" cy="0" r="1" gradientUnits="userSpaceOnUse" gradientTransform="translate(8.10684 60.8117) scale(2.34118 2.32645)">
<stop stop-color="#009CCD"/>
<stop offset="0.86" stop-color="#0085B5"/>
<stop offset="1" stop-color="#0081B1"/>
</radialGradient>
<linearGradient id="paint3_linear_164633_183057" x1="37.2725" y1="17.9866" x2="22.0641" y2="33.2913" gradientUnits="userSpaceOnUse">
<stop stop-color="#221E1E"/>
<stop offset="0.52" stop-color="#332D2D"/>
<stop offset="0.53" stop-color="#221E1E"/>
</linearGradient>
<radialGradient id="paint4_radial_164633_183057" cx="0" cy="0" r="1" gradientUnits="userSpaceOnUse" gradientTransform="translate(29.7714 25.5215) scale(6.41786 6.37747)">
<stop stop-color="#009CCD"/>
<stop offset="0.86" stop-color="#0085B5"/>
<stop offset="1" stop-color="#0081B1"/>
</radialGradient>
<clipPath id="clip0_164633_183057">
<rect width="48" height="93" fill="white"/>
</clipPath>
</defs>
</svg>
