<svg width="133" height="91" viewBox="0 0 133 91" fill="none" xmlns="http://www.w3.org/2000/svg">
<g clip-path="url(#clip0_164633_183086)">
<path d="M70.7258 91L133 56.7522V56.1134L0 51.3472V52.1334L70.7258 91Z" fill="#B6B7A2"/>
<path d="M70.7258 90.3121L133 56.1134L62.2742 17.1485L0 51.3472L70.7258 90.3121Z" fill="#CCC6BA"/>
<path d="M54.5149 39.9476L55.108 39.5054L63.1641 43.9276V55.2781L62.571 55.622L54.5149 39.9476Z" fill="white"/>
<path d="M54.5149 51.1998V39.8002L62.571 44.2716V55.622L54.5149 51.1998Z" fill="#DBDBDB"/>
<path d="M61.6813 44.5664L55.4539 41.1269V50.8558L61.6813 54.2954V44.5664Z" fill="#5F5F64"/>
<path d="M58.617 42.5518V52.8704L58.1228 52.6247V42.3062L58.617 42.5518Z" fill="#DBDBDB"/>
<path d="M82.0441 34.0022L48.238 52.6247L82.0441 71.1982L115.899 52.6247L82.0441 34.0022Z" fill="#FFF9E9"/>
<path d="M115.899 55.7694L82.0439 74.3429V71.1982L115.899 52.6247V55.7694Z" fill="url(#paint0_linear_164633_183086)"/>
<path d="M82.0441 74.3429L48.238 55.7694V52.6247L82.0441 71.1982V74.3429Z" fill="url(#paint1_linear_164633_183086)"/>
<path d="M34.0532 43.1415L17.4468 52.1334L51.3022 70.7068L67.9087 61.7149L34.0532 43.1415Z" fill="#FFF9E9"/>
<path d="M66.2283 62.6485L51.3022 70.7068V73.9007L66.2283 65.8423V62.6485Z" fill="#FFF9E9"/>
<path d="M51.3022 73.9007L17.4468 55.2781V52.1334L51.3022 70.7068V73.9007Z" fill="url(#paint2_linear_164633_183086)"/>
<path d="M82.0438 69.5275V48.9887L51.2527 32.0367V52.6247L82.0438 69.5275Z" fill="url(#paint3_linear_164633_183086)"/>
<path d="M51.4999 68.987V48.399L35.1405 18.0329L19.7202 31.1523V51.6911L51.4999 68.987Z" fill="url(#paint4_linear_164633_183086)"/>
<path d="M66.2284 40.2916L51.5 48.399V68.987L66.2284 60.8796V40.2916Z" fill="#FFF9E9"/>
<path d="M97.4642 19.1139L112.885 32.0367V37.2943V52.8213L105.323 56.7521L82.0439 69.5275V48.9886L97.4642 19.1139Z" fill="#FFF9E9"/>
<path d="M97.0195 16.9519L80.6602 48.6447L49.8196 31.7419L66.1789 0L97.0195 16.9519Z" fill="url(#paint5_radial_164633_183086)"/>
<path d="M114.318 31.3979V32.2332L112.885 33.0194V32.0367L97.4643 19.1139L82.044 48.9886V49.9714L80.6602 50.7575V48.6447L97.0195 16.9519L114.318 31.3979Z" fill="#00678E"/>
<path d="M80.6602 50.7575V48.6447L49.8196 31.7419V33.8056L80.6602 50.7575Z" fill="#00678E"/>
<path d="M68.1064 47.5637L68.6995 47.1215L76.7556 51.5437V62.8942L76.1626 63.2381L68.1064 47.5637Z" fill="white"/>
<path d="M68.1064 58.8159V47.4163L76.1626 51.8877V63.2381L68.1064 58.8159Z" fill="#DBDBDB"/>
<path d="M75.2234 52.1825L69.0454 48.743V58.4719L75.2234 61.9114V52.1825Z" fill="#5F5F64"/>
<path d="M72.2086 50.1679V60.4865L71.7144 60.2408V49.9222L72.2086 50.1679Z" fill="#DBDBDB"/>
<path d="M96.6734 47.4163L96.0803 47.1215L88.0242 51.5437V62.8942L88.6173 63.2381L96.6734 47.4163Z" fill="white"/>
<path d="M96.6733 58.8159V47.4163L88.6172 51.8877V63.2381L96.6733 58.8159Z" fill="#EFEFEF"/>
<path d="M89.5564 52.1825L95.7344 48.743V58.4719L89.5564 61.9114V52.1825Z" fill="#5F5F64"/>
<path d="M92.6206 50.1679V60.4865L93.0654 60.2408V49.9222L92.6206 50.1679Z" fill="#EFEFEF"/>
<path d="M102.555 26.6317L101.962 26.2878L97.217 28.8429V39.9967L97.8595 40.3407L102.555 26.6317Z" fill="white"/>
<path d="M102.555 37.7856V26.6317L97.8596 29.1377V40.3407L102.555 37.7856Z" fill="#EFEFEF"/>
<path d="M98.7493 29.4325L101.616 27.9584V37.4908L98.7493 39.014V29.4325Z" fill="#5F5F64"/>
<path d="M107.151 42.257L105.718 41.52L97.9089 45.6474V60.8305L99.3917 61.6658L107.151 42.257Z" fill="white"/>
<path d="M107.151 57.3909V42.257L99.3423 46.3844L99.3917 61.6658L107.151 57.3909Z" fill="#EFEFEF"/>
<path d="M106.311 43.9768L100.232 46.9741V61.2235L106.311 57.9314V43.9768Z" fill="#5F5F64"/>
<path d="M61.8789 49.3817L61.2859 48.9395L56.5906 51.4455V62.6485L57.1837 62.9433L61.8789 49.3817Z" fill="white"/>
<path d="M61.8789 60.4374V49.2343L57.1836 51.7894V62.9433L61.8789 60.4374Z" fill="#EFEFEF"/>
<path d="M58.1228 52.0842L60.94 50.561V60.0934L58.1228 61.6166V52.0842Z" fill="#5F5F64"/>
<path d="M114.12 63.4347L107.201 59.7003L103.741 66.3828L106.212 67.7586L114.12 63.4347Z" fill="#FFF9E9"/>
<path d="M106.212 68.8888L99.293 65.007V63.8769L106.212 67.7586V68.8888Z" fill="url(#paint6_linear_164633_183086)"/>
<path d="M106.212 68.8888L114.12 64.5648V63.4347L106.212 67.7586V68.8888Z" fill="url(#paint7_linear_164633_183086)"/>
<path d="M111.896 61.027L107.201 58.5702L101.468 63.9752L103.988 65.351L111.896 61.027Z" fill="#FFF9E9"/>
<path d="M103.988 66.4811L99.293 63.8769V62.7468L103.988 65.351V66.4811Z" fill="url(#paint8_linear_164633_183086)"/>
<path d="M103.988 66.4811L111.896 62.1571V61.027L103.988 65.351V66.4811Z" fill="url(#paint9_linear_164633_183086)"/>
<path d="M109.721 58.6685L107.201 57.4401L99.293 61.6166L101.814 62.9924L109.721 58.6685Z" fill="#FFF9E9"/>
<path d="M101.814 64.1226L99.293 62.7468V61.6166L101.814 62.9924V64.1226Z" fill="url(#paint10_linear_164633_183086)"/>
<path d="M101.813 64.1226L109.721 59.7986V58.6685L101.813 62.9924V64.1226Z" fill="url(#paint11_linear_164633_183086)"/>
<path d="M66.3269 69.8223C64.4488 69.8223 62.9661 68.8888 62.9661 68.25V66.1863C62.9661 65.3018 63.8063 63.5329 66.3269 63.5329C68.8475 63.5329 69.6877 65.3018 69.6877 66.1863V68.2991C69.6877 68.9379 68.3039 69.8223 66.3269 69.8223Z" fill="#61913D"/>
<path d="M72.1095 73.5075C69.5889 73.5075 67.6614 72.2791 67.6614 71.4438V68.6922C67.6614 67.5129 68.7487 65.1544 72.1095 65.1544C75.2727 65.1544 76.5577 67.5129 76.5577 68.6922V71.493C76.5577 72.3283 74.729 73.5075 72.1095 73.5075Z" fill="#7BA525"/>
<path d="M68.4026 67.4147C68.5015 68.5448 70.1325 69.3801 72.06 69.2327C73.9875 69.0853 75.4702 68.1026 75.3714 66.9233C75.2726 65.7932 73.6416 64.9579 71.714 65.1053C69.7865 65.2527 68.3038 66.2354 68.4026 67.3656V67.4147Z" fill="#7BA525"/>
<path d="M58.4192 73.2127C56.7387 73.2127 55.4043 72.3774 55.4043 71.8369V69.9697C55.4043 69.1836 56.1457 67.5621 58.4192 67.5621C60.6927 67.5621 61.434 69.1836 61.434 69.9697V71.8369C61.434 72.3774 60.1984 73.2127 58.4192 73.2127Z" fill="#61913D"/>
<path d="M66.1788 0L35.5359 16.8537L51.8952 48.5464L66.1788 40.7338V0Z" fill="#00729D"/>
<path d="M18.2869 31.2997V32.135L19.6707 32.9212V31.9384L35.091 19.0157L50.5113 48.8904V49.8731L51.8952 50.6593V48.5464L35.5358 16.8537L18.2869 31.2997Z" fill="#00678E"/>
<path d="M66.1788 40.7338L51.8953 48.5464V50.6593L66.1788 42.7975V40.7338Z" fill="#00678E"/>
<path d="M37.0186 46.6793L37.6611 46.237L45.7172 50.6593V62.0588L45.1241 62.3537L37.0186 46.6793Z" fill="white"/>
<path d="M37.0186 57.9314V46.581L45.1241 51.0032V62.3537L37.0186 57.9314Z" fill="#DBDBDB"/>
<path d="M44.1849 51.298L37.9575 47.9077V57.6366L44.1849 61.027V51.298Z" fill="#5F5F64"/>
<path d="M41.1208 49.2835V59.602L40.676 59.3564V49.0378L41.1208 49.2835Z" fill="#DBDBDB"/>
<path d="M29.8521 25.1085L30.4451 24.6663L38.5013 29.0885V40.439L37.9082 40.7829L29.8521 25.1085Z" fill="white"/>
<path d="M29.8521 36.3607V24.9611L37.9082 29.4325V40.7829L29.8521 36.3607Z" fill="#DBDBDB"/>
<path d="M36.9691 29.7273L30.7417 26.2878V36.0659L36.9691 39.4562V29.7273Z" fill="#5F5F64"/>
<path d="M33.9048 27.7127V38.0313L33.46 37.7856V27.467L33.9048 27.7127Z" fill="#DBDBDB"/>
<path d="M23.427 39.358L24.0201 38.9158L32.0762 43.338V54.6884L31.4831 55.0324L23.427 39.358Z" fill="white"/>
<path d="M23.427 50.561V39.2106L31.4831 43.6328V55.0324L23.427 50.561Z" fill="#DBDBDB"/>
<path d="M30.544 43.9276L24.366 40.5373V50.2662L30.544 53.7057V43.9276Z" fill="#5F5F64"/>
<path d="M27.4797 41.9622V52.2808L27.0349 52.0351V41.7165L27.4797 41.9622Z" fill="#DBDBDB"/>
</g>
<defs>
<linearGradient id="paint0_linear_164633_183086" x1="82.0439" y1="63.4838" x2="115.899" y2="63.4838" gradientUnits="userSpaceOnUse">
<stop stop-color="#AEA388"/>
<stop offset="0.6" stop-color="#CDC3AB"/>
<stop offset="1" stop-color="#E4DBC6"/>
</linearGradient>
<linearGradient id="paint1_linear_164633_183086" x1="48.238" y1="-1.28273e-05" x2="82.0441" y2="-1.28273e-05" gradientUnits="userSpaceOnUse">
<stop stop-color="#AEA388"/>
<stop offset="0.6" stop-color="#CDC3AB"/>
<stop offset="1" stop-color="#E4DBC6"/>
</linearGradient>
<linearGradient id="paint2_linear_164633_183086" x1="17.4468" y1="62.9925" x2="51.3022" y2="62.9925" gradientUnits="userSpaceOnUse">
<stop stop-color="#AEA388"/>
<stop offset="0.6" stop-color="#CDC3AB"/>
<stop offset="1" stop-color="#E4DBC6"/>
</linearGradient>
<linearGradient id="paint3_linear_164633_183086" x1="51.2527" y1="50.8067" x2="82.0438" y2="50.8067" gradientUnits="userSpaceOnUse">
<stop stop-color="#AEA388"/>
<stop offset="0.6" stop-color="#CDC3AB"/>
<stop offset="1" stop-color="#E4DBC6"/>
</linearGradient>
<linearGradient id="paint4_linear_164633_183086" x1="19.7202" y1="43.4854" x2="51.4999" y2="43.4854" gradientUnits="userSpaceOnUse">
<stop stop-color="#AEA388"/>
<stop offset="0.6" stop-color="#CDC3AB"/>
<stop offset="1" stop-color="#E4DBC6"/>
</linearGradient>
<radialGradient id="paint5_radial_164633_183086" cx="0" cy="0" r="1" gradientUnits="userSpaceOnUse" gradientTransform="translate(73.4443 24.3224) scale(24.0201 23.8801)">
<stop stop-color="#009CCD"/>
<stop offset="0.86" stop-color="#0085B5"/>
<stop offset="1" stop-color="#0081B1"/>
</radialGradient>
<linearGradient id="paint6_linear_164633_183086" x1="99.293" y1="66.3828" x2="106.212" y2="66.3828" gradientUnits="userSpaceOnUse">
<stop stop-color="#AEA388"/>
<stop offset="0.6" stop-color="#CDC3AB"/>
<stop offset="1" stop-color="#E4DBC6"/>
</linearGradient>
<linearGradient id="paint7_linear_164633_183086" x1="106.212" y1="66.1371" x2="114.12" y2="66.1371" gradientUnits="userSpaceOnUse">
<stop stop-color="#AEA388"/>
<stop offset="0.6" stop-color="#CDC3AB"/>
<stop offset="1" stop-color="#E4DBC6"/>
</linearGradient>
<linearGradient id="paint8_linear_164633_183086" x1="99.293" y1="64.6139" x2="103.988" y2="64.6139" gradientUnits="userSpaceOnUse">
<stop stop-color="#AEA388"/>
<stop offset="0.6" stop-color="#CDC3AB"/>
<stop offset="1" stop-color="#E4DBC6"/>
</linearGradient>
<linearGradient id="paint9_linear_164633_183086" x1="103.988" y1="63.7295" x2="111.896" y2="63.7295" gradientUnits="userSpaceOnUse">
<stop stop-color="#AEA388"/>
<stop offset="0.6" stop-color="#CDC3AB"/>
<stop offset="1" stop-color="#E4DBC6"/>
</linearGradient>
<linearGradient id="paint10_linear_164633_183086" x1="99.293" y1="62.8942" x2="101.814" y2="62.8942" gradientUnits="userSpaceOnUse">
<stop stop-color="#AEA388"/>
<stop offset="0.6" stop-color="#CDC3AB"/>
<stop offset="1" stop-color="#E4DBC6"/>
</linearGradient>
<linearGradient id="paint11_linear_164633_183086" x1="101.813" y1="61.4201" x2="109.721" y2="61.4201" gradientUnits="userSpaceOnUse">
<stop stop-color="#AEA388"/>
<stop offset="0.6" stop-color="#CDC3AB"/>
<stop offset="1" stop-color="#E4DBC6"/>
</linearGradient>
<clipPath id="clip0_164633_183086">
<rect width="133" height="91" fill="white"/>
</clipPath>
</defs>
</svg>
