<svg width="103" height="32" viewBox="0 0 103 32" fill="none" xmlns="http://www.w3.org/2000/svg">
<g clip-path="url(#clip0_164764_45287)">
<path d="M43.3064 8.76088C43.0475 9.36209 42.7356 9.96124 42.4135 10.5357V17.8532H41.8469V11.4602C41.4962 11.9955 41.1212 12.4917 40.7604 12.9096C40.6809 12.7779 40.4893 12.5164 40.3608 12.3887C41.2659 11.4354 42.1812 9.97566 42.7642 8.57764L43.3064 8.76088ZM43.021 6.26957C42.5053 7.23521 41.6654 8.39645 40.8888 9.16649C40.8256 9.03472 40.6585 8.81442 40.5545 8.69706C41.2659 7.99084 42.0527 6.92225 42.4543 6.04926L43.021 6.26957ZM44.6089 12.6379C44.558 14.9315 44.3623 16.5766 43.3431 17.5299C43.2656 17.4125 43.0842 17.2025 42.9293 17.0975C43.8343 16.2369 44.0137 14.7503 44.0402 12.6379H44.6089ZM47.5545 12.0243H43.3451V11.4746H47.5545V12.0243ZM47.5035 10.4966H43.6407V7.31345H44.1584V9.96124H45.3468V6.0472H45.8768V9.96124H46.9878V7.31345H47.5055V10.4966H47.5035ZM48.0213 14.6844C48.06 14.8265 48.1375 15.0242 48.1905 15.1415C46.5883 16.1854 46.3559 16.381 46.2254 16.5519C46.1887 16.3954 46.046 16.1216 45.9563 15.9775C46.099 15.8992 46.3049 15.7036 46.3049 15.2074V12.609H46.8594V15.3639L48.0213 14.6844ZM51.507 9.10061C51.2624 11.2934 50.8873 13.132 50.2411 14.6597C50.7202 15.7942 51.3643 16.694 52.2041 17.2952C52.0635 17.4002 51.8698 17.6081 51.7781 17.7667C51.0015 17.1655 50.4083 16.3172 49.9313 15.3001C49.4013 16.3192 48.7306 17.1922 47.8378 17.9087C47.7604 17.7914 47.5524 17.5567 47.424 17.4517C48.4045 16.7351 49.1159 15.7819 49.6459 14.6206C49.1934 13.4594 48.8835 12.0902 48.6634 10.5625C48.484 10.966 48.3005 11.3325 48.0947 11.6722C48.0029 11.5672 47.7869 11.3572 47.6421 11.2543C48.4697 9.97772 48.9855 8.04437 49.2688 6.03485L49.8497 6.1378C49.7213 6.96137 49.5664 7.76848 49.3605 8.52617H52.1634V9.10061H51.5029H51.507ZM49.1954 9.10061C49.1444 9.26944 49.0915 9.43827 49.0405 9.59475C49.2199 11.2007 49.5175 12.6605 49.9435 13.902C50.447 12.5452 50.7446 10.9537 50.9383 9.10061H49.1934H49.1954Z" fill="white" fill-opacity="0.85"/>
<path d="M62.8996 8.61666H58.521V10.8465H57.9136V8.10811H62.8996V7.10335H58.468V6.59479H68.014V7.10335H63.505V8.10811H68.595V10.8465H67.9896V8.61666H63.507V11.7483H62.8996V8.61666ZM62.0333 11.1862C61.014 11.3674 60.0193 11.563 59.1794 11.7071L58.9471 11.1615C59.7726 11.0565 60.8713 10.8877 62.0088 10.7044L62.0333 11.1883V11.1862ZM67.6287 17.1468C68.3381 17.1468 68.4666 16.8998 68.5318 15.477C68.6724 15.582 68.9048 15.6726 69.0862 15.7118C68.9843 17.2889 68.7764 17.6945 67.6512 17.6945H64.4998C63.2482 17.6945 62.8975 17.4989 62.8975 16.6259V16.0124H59.5892V16.7556H58.9817V12.3063H67.5982V16.0124H63.4928V16.6259C63.4928 17.0439 63.6599 17.1468 64.4855 17.1468H67.6267H67.6287ZM61.8926 10.2597C61.2729 9.95909 60.1232 9.62143 59.2304 9.42583L59.4363 9.03463C60.3271 9.20346 61.4645 9.53083 62.0842 9.80467L61.8906 10.2618L61.8926 10.2597ZM59.5912 12.8292V13.9123H62.8996V12.8292H59.5912ZM62.8996 15.5059V14.3961H59.5912V15.5059H62.8996ZM66.9928 12.8292H63.4928V13.9123H66.9928V12.8292ZM66.9928 15.5059V14.3961H63.4928V15.5059H66.9928ZM67.2781 11.7998C66.5667 11.5383 65.2621 11.2397 64.2429 11.108L64.4345 10.6653C65.4436 10.7827 66.7461 11.0544 67.4575 11.3036L67.2781 11.7998ZM67.3026 9.42583C66.5402 9.75114 65.4293 10.0517 64.6282 10.235L64.3836 9.85614C65.1582 9.67496 66.3221 9.25493 66.9805 8.99551L67.3026 9.42583Z" fill="white" fill-opacity="0.85"/>
<path d="M79.5435 17.046C79.5435 17.4372 79.4538 17.6204 79.1704 17.7254C78.8728 17.8304 78.3163 17.8304 77.4908 17.8304C77.452 17.6739 77.3746 17.4392 77.2726 17.2704C77.982 17.2951 78.5487 17.2827 78.7322 17.2704C78.9115 17.2704 78.9523 17.2189 78.9523 17.048V14.6205C77.9576 15.1806 76.9485 15.7282 76.1352 16.1606L75.8376 15.5862C76.6509 15.2465 77.8006 14.672 78.9523 14.0873V11.2171H75.8641V14.0214C75.8641 15.2341 75.7234 16.801 74.8571 17.884C74.7796 17.7398 74.5595 17.5195 74.4331 17.4392C75.1955 16.4468 75.2852 15.1044 75.2852 14.0214V10.6427H79.5455V17.0501L79.5435 17.046ZM78.6404 6.986C79.3498 7.86105 80.1122 9.047 80.4363 9.81704L79.9063 10.0909C79.8023 9.81704 79.6474 9.50202 79.4415 9.16436C75.7866 9.45055 75.3851 9.50202 75.1262 9.60703C75.0874 9.46496 74.9855 9.12524 74.9203 8.96876C75.1139 8.92758 75.3198 8.74639 75.5644 8.4602C75.8376 8.1843 76.7406 7.08895 77.3093 6.03271L77.929 6.28185C77.3338 7.22072 76.6632 8.14724 75.9905 8.8514L79.1419 8.62903C78.8198 8.14724 78.4835 7.63869 78.1471 7.19396L78.6384 6.986H78.6404ZM76.445 12.1807C77.2461 12.609 78.2674 13.1978 78.7954 13.5746L78.4733 13.9946C77.9433 13.589 76.922 12.9755 76.1352 12.5451L76.445 12.1807ZM82.0365 11.5918C81.1334 11.5918 80.8623 11.2912 80.8623 10.3915V6.03477H81.48V8.00518H85.1614V8.57756H81.48V10.4183C81.48 10.8877 81.5962 11.0442 82.0344 11.0442H84.7089C84.9942 11.0442 85.4692 11.0318 85.7158 10.9783C85.7301 11.1615 85.7546 11.3962 85.7953 11.5404C85.6017 11.5795 85.1879 11.5918 84.7211 11.5918H82.0344H82.0365ZM84.8026 17.1757C85.3978 17.1757 85.4998 16.8998 85.5507 15.3865C85.7056 15.4915 85.9503 15.5821 86.1317 15.6232C86.0277 17.3198 85.8361 17.7357 84.8393 17.7357H82.2688C81.1722 17.7357 80.8623 17.5278 80.8623 16.6671V12.088H81.48V13.797H85.3163V14.3961H81.48V16.6671C81.48 17.0707 81.6104 17.1757 82.2953 17.1757H84.8026Z" fill="white" fill-opacity="0.85"/>
<path d="M93.4538 11.5795C92.9503 11.1883 91.9943 10.5603 91.2319 10.1424L91.607 9.72647C92.3286 10.1177 93.3111 10.7045 93.8167 11.071L93.4538 11.5795ZM94.1143 13.4573C93.5313 14.8265 92.7567 16.4983 92.1105 17.6719L91.5683 17.3054C92.1635 16.3007 93.0156 14.5382 93.6087 13.0928L94.1143 13.4573ZM94.0491 8.18638C93.5578 7.77048 92.6018 7.10544 91.8781 6.64836L92.241 6.22833C92.9626 6.66071 93.9329 7.29898 94.4221 7.67782L94.047 8.18638H94.0491ZM95.69 10.2227C95.69 12.4649 95.4841 15.5965 93.9716 17.7769C93.8676 17.6719 93.5965 17.5154 93.4681 17.464C94.9398 15.3227 95.0825 12.3743 95.0825 10.2227V6.66071H102.859V7.24751H95.69V10.2227ZM97.7957 14.357C97.3452 15.335 96.6847 16.3521 96.0651 17.0316C95.9611 16.9533 95.69 16.7824 95.5473 16.6919C96.1935 16.0392 96.8132 15.1147 97.2127 14.2129L97.7937 14.357H97.7957ZM99.6955 13.3523V17.1242C99.6955 17.501 99.618 17.6719 99.3327 17.7769C99.0351 17.8819 98.5051 17.8819 97.6143 17.8696C97.5755 17.711 97.4981 17.4887 97.4206 17.3219C98.13 17.3466 98.713 17.3342 98.8679 17.3342C99.0473 17.3219 99.1003 17.2704 99.1003 17.1263V13.3543H96.6216V8.98319H98.713C98.8536 8.55287 99.0228 7.96608 99.1125 7.56047L99.773 7.7293C99.618 8.14726 99.4509 8.60641 99.2939 8.98319H102.292V13.3543H99.6955V13.3523ZM97.2005 10.898H101.697V9.51646H97.2005V10.898ZM97.2005 12.8149H101.697V11.4066H97.2005V12.8149ZM101.385 14.1347C101.966 14.9438 102.653 16.0145 103.002 16.6383L102.431 16.9142C102.097 16.2739 101.424 15.1641 100.855 14.3426L101.385 14.1347Z" fill="white" fill-opacity="0.85"/>
<path d="M41.4048 23.4142H42.0673L44.1791 26.6097L46.2909 23.4142H46.9534V29.2699H46.2991V24.5261L44.1872 27.6639H44.1546L42.0428 24.5343V29.2699H41.4048V23.4142Z" fill="white" fill-opacity="0.85"/>
<path d="M48.248 23.2886H48.9778V24.001H48.248V23.2886ZM48.2888 24.9461H48.9268V29.2719H48.2888V24.9461Z" fill="white" fill-opacity="0.85"/>
<path d="M52.0822 29.3707C51.7662 29.3707 51.4747 29.311 51.2077 29.1916C50.9386 29.0722 50.7083 28.9095 50.5106 28.7057C50.3149 28.5018 50.16 28.263 50.0499 27.9892C49.9398 27.7153 49.8848 27.4291 49.8848 27.1285V27.112C49.8848 26.8053 49.9398 26.515 50.0499 26.2411C50.16 25.9673 50.3149 25.7284 50.5106 25.5225C50.7063 25.3146 50.9386 25.1519 51.2077 25.0325C51.4747 24.9131 51.7662 24.8534 52.0822 24.8534C52.286 24.8534 52.4715 24.874 52.6367 24.911C52.8018 24.9502 52.9546 25.0037 53.0933 25.0737C53.2319 25.1437 53.3583 25.2261 53.4744 25.3208C53.5906 25.4155 53.6987 25.5164 53.7986 25.6214L53.3766 26.0743C53.2054 25.8973 53.0199 25.7429 52.8181 25.6131C52.6163 25.4855 52.3696 25.4217 52.0761 25.4217C51.86 25.4217 51.6582 25.4649 51.4707 25.5514C51.2831 25.6378 51.1201 25.7573 50.9814 25.9076C50.8428 26.0579 50.7348 26.2349 50.6594 26.4388C50.5819 26.6426 50.5432 26.8629 50.5432 27.0956V27.112C50.5432 27.3468 50.5839 27.565 50.6634 27.7688C50.7429 27.9727 50.853 28.1518 50.9937 28.3042C51.1343 28.4565 51.3015 28.578 51.4911 28.6645C51.6806 28.751 51.8885 28.7942 52.1168 28.7942C52.3941 28.7942 52.6366 28.7324 52.8507 28.611C53.0627 28.4874 53.2543 28.3351 53.4255 28.1518L53.8332 28.5368C53.6171 28.7818 53.3725 28.9836 53.0994 29.1401C52.8262 29.2966 52.4878 29.3748 52.0842 29.3748L52.0822 29.3707Z" fill="white" fill-opacity="0.85"/>
<path d="M54.6261 24.9461H55.2641V26.0743C55.3415 25.8973 55.4394 25.7305 55.5535 25.5802C55.6697 25.4299 55.8022 25.3002 55.951 25.1911C56.0999 25.0819 56.2629 24.9996 56.4403 24.944C56.6176 24.8884 56.8072 24.8637 57.011 24.8678V25.5617H56.9601C56.7277 25.5617 56.5075 25.6029 56.3017 25.6873C56.0958 25.7717 55.9144 25.8952 55.7594 26.0641C55.6045 26.2308 55.4842 26.4388 55.3946 26.6859C55.3069 26.935 55.2621 27.2212 55.2621 27.5444V29.2678H54.624V24.9419L54.6261 24.9461Z" fill="white" fill-opacity="0.85"/>
<path d="M59.6773 29.3707C59.3573 29.3707 59.0617 29.311 58.7926 29.1916C58.5215 29.0722 58.2871 28.9095 58.0893 28.7057C57.8896 28.5018 57.7347 28.2651 57.6246 27.9933C57.5145 27.7236 57.4595 27.4353 57.4595 27.1285V27.112C57.4595 26.8053 57.5145 26.515 57.6246 26.2411C57.7347 25.9673 57.8896 25.7284 58.0893 25.5225C58.2871 25.3146 58.5235 25.1519 58.7967 25.0325C59.0698 24.9131 59.3695 24.8534 59.6956 24.8534C60.0218 24.8534 60.3133 24.9131 60.5864 25.0325C60.8596 25.1519 61.096 25.3146 61.2938 25.5184C61.4915 25.7223 61.6464 25.959 61.7565 26.2288C61.8666 26.4985 61.9236 26.7888 61.9236 27.0956V27.112C61.9236 27.4188 61.8666 27.7091 61.7524 27.983C61.6403 28.2568 61.4833 28.4957 61.2836 28.7036C61.0858 28.9095 60.8473 29.0742 60.5722 29.1936C60.297 29.313 59.9973 29.3728 59.6773 29.3728V29.3707ZM59.6936 28.7942C59.926 28.7942 60.138 28.751 60.3316 28.6604C60.5253 28.5718 60.6904 28.4504 60.829 28.3001C60.9676 28.1498 61.0736 27.9747 61.1531 27.773C61.2306 27.5712 61.2693 27.3571 61.2693 27.1285V27.112C61.2693 26.8773 61.2285 26.6591 61.149 26.4552C61.0675 26.2514 60.9574 26.0723 60.8127 25.9199C60.67 25.7676 60.5008 25.6461 60.3072 25.5555C60.1135 25.467 59.9036 25.4217 59.6773 25.4217C59.451 25.4217 59.2329 25.467 59.0413 25.5555C58.8476 25.644 58.6846 25.7655 58.548 25.9158C58.4135 26.0682 58.3054 26.2432 58.23 26.447C58.1525 26.6508 58.1138 26.867 58.1138 27.0956V27.112C58.1138 27.3468 58.1546 27.565 58.2341 27.7688C58.3136 27.9727 58.4236 28.1498 58.5643 28.3001C58.705 28.4504 58.8721 28.5718 59.0658 28.6604C59.2574 28.7489 59.4673 28.7942 59.6936 28.7942Z" fill="white" fill-opacity="0.85"/>
<path d="M65.1544 23.4142H69.3454V24.0072H65.8087V26.0229H68.9724V26.6159H65.8087V28.6748H69.3862V29.2678H65.1523V23.4122L65.1544 23.4142Z" fill="white" fill-opacity="0.85"/>
<path d="M70.3975 23.163H71.0355V29.2698H70.3975V23.163Z" fill="white" fill-opacity="0.85"/>
<path d="M72.6418 27.3715C72.6642 27.6 72.7193 27.8039 72.8069 27.983C72.8946 28.1621 73.0067 28.3124 73.1453 28.4339C73.2839 28.5554 73.4388 28.6501 73.608 28.7139C73.7792 28.7777 73.9586 28.8107 74.1461 28.8107C74.4438 28.8107 74.7006 28.7551 74.9126 28.6439C75.1246 28.5327 75.3203 28.3845 75.4976 28.1992L75.8951 28.5595C75.6791 28.8045 75.4344 29.0022 75.1592 29.1504C74.882 29.2986 74.5416 29.3728 74.1319 29.3728C73.8383 29.3728 73.5632 29.3172 73.3043 29.2101C73.0434 29.101 72.8171 28.9486 72.6255 28.7489C72.4318 28.5512 72.2789 28.3124 72.1648 28.0324C72.0506 27.7544 71.9956 27.4477 71.9956 27.112C71.9956 26.7991 72.0466 26.5047 72.1485 26.2288C72.2504 25.9529 72.3931 25.714 72.5745 25.5102C72.758 25.3064 72.9741 25.1458 73.2248 25.0284C73.4755 24.911 73.7507 24.8534 74.0483 24.8534C74.3643 24.8534 74.6456 24.9131 74.8943 25.0325C75.1429 25.1519 75.3529 25.3146 75.5241 25.5225C75.6954 25.7284 75.8258 25.9714 75.9135 26.2494C76.0011 26.5294 76.046 26.8279 76.046 27.145V27.2418C76.046 27.2788 76.0439 27.3221 76.0378 27.3715H72.6418ZM75.3998 26.8444C75.3835 26.6508 75.3407 26.4655 75.2754 26.2905C75.2102 26.1155 75.1205 25.9611 75.0064 25.8293C74.8922 25.6955 74.7556 25.5905 74.5926 25.5123C74.4295 25.434 74.242 25.397 74.034 25.397C73.8526 25.397 73.6814 25.434 73.5204 25.504C73.3614 25.5761 73.2187 25.677 73.0984 25.8067C72.9781 25.9385 72.8762 26.0908 72.7967 26.2679C72.7172 26.445 72.6662 26.6364 72.6438 26.8423H75.4018L75.3998 26.8444Z" fill="white" fill-opacity="0.85"/>
<path d="M78.8385 29.3707C78.5225 29.3707 78.231 29.311 77.964 29.1916C77.6949 29.0722 77.4646 28.9095 77.2689 28.7057C77.0732 28.5018 76.9183 28.263 76.8082 27.9892C76.6981 27.7153 76.6431 27.4291 76.6431 27.1285V27.112C76.6431 26.8053 76.6981 26.515 76.8082 26.2411C76.9183 25.9673 77.0711 25.7284 77.2689 25.5225C77.4646 25.3146 77.6969 25.1519 77.964 25.0325C78.231 24.9131 78.5225 24.8534 78.8385 24.8534C79.0423 24.8534 79.2278 24.874 79.3929 24.911C79.558 24.9502 79.7109 25.0037 79.8495 25.0737C79.9881 25.1437 80.1145 25.2261 80.2307 25.3208C80.3469 25.4155 80.4549 25.5164 80.5528 25.6214L80.1308 26.0743C79.9596 25.8973 79.7741 25.7429 79.5723 25.6131C79.3705 25.4855 79.1238 25.4217 78.8303 25.4217C78.6142 25.4217 78.4124 25.4649 78.2249 25.5514C78.0374 25.6378 77.8743 25.7573 77.7357 25.9076C77.5971 26.0579 77.489 26.2349 77.4116 26.4388C77.3341 26.6426 77.2954 26.8629 77.2954 27.0956V27.112C77.2954 27.3468 77.3361 27.565 77.4156 27.7688C77.4951 27.9727 77.6052 28.1518 77.7479 28.3042C77.8886 28.4565 78.0557 28.578 78.2453 28.6645C78.4349 28.751 78.6428 28.7942 78.8711 28.7942C79.1463 28.7942 79.3909 28.7324 79.6049 28.611C79.8169 28.4874 80.0085 28.3351 80.1797 28.1518L80.5854 28.5368C80.3714 28.7818 80.1267 28.9836 79.8536 29.1401C79.5804 29.2966 79.2421 29.3748 78.8385 29.3748V29.3707Z" fill="white" fill-opacity="0.85"/>
<path d="M82.8135 29.346C82.6422 29.346 82.4812 29.3234 82.3324 29.2801C82.1836 29.2348 82.0552 29.1648 81.9471 29.066C81.8391 28.9692 81.7555 28.8416 81.6944 28.6851C81.6332 28.5286 81.6026 28.3412 81.6026 28.1251V25.5143H81.0054V24.9461H81.6026V23.6407H82.2407V24.9461H83.5983V25.5143H82.2407V28.0345C82.2407 28.3021 82.3059 28.4874 82.4404 28.5945C82.5729 28.6995 82.7462 28.753 82.9623 28.753C83.0723 28.753 83.1763 28.7427 83.2721 28.7201C83.37 28.6995 83.4719 28.6624 83.5819 28.611V29.1628C83.4719 29.2245 83.3536 29.2698 83.2313 29.3007C83.107 29.3316 82.9663 29.346 82.8135 29.346Z" fill="white" fill-opacity="0.85"/>
<path d="M84.4707 24.9461H85.1087V26.0743C85.1862 25.8973 85.284 25.7305 85.3982 25.5802C85.5144 25.4299 85.6469 25.3002 85.7957 25.1911C85.9445 25.0819 86.1076 24.9996 86.2849 24.944C86.4623 24.8884 86.6518 24.8637 86.8557 24.8678V25.5617H86.8067C86.5744 25.5617 86.3542 25.6029 86.1483 25.6873C85.9424 25.7717 85.761 25.8952 85.6061 26.0641C85.4512 26.2308 85.3309 26.4388 85.2433 26.6859C85.1556 26.935 85.1108 27.2212 85.1108 27.5444V29.2678H84.4727V24.9419L84.4707 24.9461Z" fill="white" fill-opacity="0.85"/>
<path d="M87.5835 23.2886H88.3132V24.001H87.5835V23.2886ZM87.6243 24.9461H88.2623V29.2719H87.6243V24.9461Z" fill="white" fill-opacity="0.85"/>
<path d="M91.42 29.3707C91.104 29.3707 90.8126 29.311 90.5455 29.1916C90.2764 29.0722 90.0461 28.9095 89.8484 28.7057C89.6527 28.5018 89.4998 28.263 89.3897 27.9892C89.2796 27.7153 89.2246 27.4291 89.2246 27.1285V27.112C89.2246 26.8053 89.2796 26.515 89.3897 26.2411C89.4998 25.9673 89.6527 25.7284 89.8484 25.5225C90.0461 25.3146 90.2764 25.1519 90.5455 25.0325C90.8126 24.9131 91.104 24.8534 91.42 24.8534C91.6238 24.8534 91.8093 24.874 91.9745 24.911C92.1396 24.9502 92.2925 25.0037 92.429 25.0737C92.5676 25.1437 92.694 25.2261 92.8102 25.3208C92.9264 25.4155 93.0344 25.5164 93.1323 25.6214L92.7103 26.0743C92.5391 25.8973 92.3536 25.7429 92.1518 25.6131C91.95 25.4855 91.7033 25.4217 91.4098 25.4217C91.1937 25.4217 90.994 25.4649 90.8044 25.5514C90.6169 25.6378 90.4538 25.7573 90.3152 25.9076C90.1786 26.0579 90.0706 26.2349 89.9931 26.4388C89.9156 26.6426 89.8769 26.8629 89.8769 27.0956V27.112C89.8769 27.3468 89.9177 27.565 89.9972 27.7688C90.0767 27.9727 90.1888 28.1518 90.3294 28.3042C90.4701 28.4565 90.6352 28.578 90.8268 28.6645C91.0184 28.751 91.2264 28.7942 91.4526 28.7942C91.7278 28.7942 91.9724 28.7324 92.1844 28.611C92.3985 28.4874 92.588 28.3351 92.7613 28.1518L93.1669 28.5368C92.9509 28.7818 92.7083 28.9836 92.4331 29.1401C92.16 29.2966 91.8216 29.3748 91.418 29.3748L91.42 29.3707Z" fill="white" fill-opacity="0.85"/>
<path d="M93.978 23.2886H94.7078V24.001H93.978V23.2886ZM94.0188 24.9461H94.6568V29.2719H94.0188V24.9461Z" fill="white" fill-opacity="0.85"/>
<path d="M97.3169 29.346C97.1456 29.346 96.9846 29.3234 96.8358 29.2801C96.687 29.2348 96.5586 29.1648 96.4505 29.066C96.3425 28.9692 96.2589 28.8416 96.1978 28.6851C96.1366 28.5286 96.106 28.3412 96.106 28.1251V25.5143H95.5088V24.9461H96.106V23.6407H96.7441V24.9461H98.1017V25.5143H96.7441V28.0345C96.7441 28.3021 96.8093 28.4874 96.9418 28.5945C97.0743 28.6995 97.2496 28.753 97.4636 28.753C97.5737 28.753 97.6777 28.7427 97.7755 28.7201C97.8713 28.6995 97.9753 28.6624 98.0854 28.611V29.1628C97.9753 29.2245 97.8571 29.2698 97.7327 29.3007C97.6084 29.3316 97.4698 29.346 97.3148 29.346H97.3169Z" fill="white" fill-opacity="0.85"/>
<path d="M99.6367 30.6349C99.4594 30.6349 99.3004 30.6164 99.1556 30.5814C99.0129 30.5443 98.8682 30.4908 98.7255 30.4187L98.9416 29.9081C99.0456 29.9637 99.1495 30.0049 99.2535 30.0296C99.3554 30.0543 99.4757 30.0666 99.6143 30.0666C99.8079 30.0666 99.971 30.009 100.104 29.8916C100.236 29.7743 100.364 29.5622 100.493 29.2554L98.5461 24.946H99.2494L100.807 28.5512L102.183 24.946H102.862L101.064 29.4139C100.882 29.8607 100.678 30.1757 100.454 30.359C100.23 30.5443 99.9588 30.6349 99.6387 30.6349H99.6367Z" fill="white" fill-opacity="0.85"/>
<path d="M16.0366 31.9588C16.4769 31.8394 16.9111 31.5779 17.3229 31.1352L23.9947 23.9063C22.686 24.6702 21.4038 25.3146 20.1726 25.8623C19.186 26.3194 18.1749 26.7415 17.3636 26.9762H17.3616C15.5943 28.6419 13.7882 30.0358 12.1982 30.674C13.0972 31.0982 13.8636 31.4441 14.4772 31.7159C14.9542 31.9073 15.5657 32.0865 16.0346 31.9609" fill="#009CCD"/>
<path d="M8.53082e-05 24.0154C3.12093 25.9591 6.042 27.5753 8.52277 28.856C8.52277 28.856 12.2409 28.7798 17.3635 26.9762C17.3145 26.9906 17.2656 27.005 17.2167 27.0194C17.023 27.0709 16.7438 27.0956 16.3993 27.0956C12.5099 27.0956 -0.00195312 24.0175 -0.00195312 24.0175" fill="#76B5D5"/>
<path d="M17.3636 26.9762C12.2411 28.7798 8.5311 28.856 8.52295 28.856C9.90093 29.5663 11.1403 30.1717 12.2003 30.672C13.7903 30.0337 15.5984 28.6419 17.3636 26.9762Z" fill="#56A5CB"/>
<path d="M17.3636 26.9762C12.2411 28.7798 8.5311 28.856 8.52295 28.856C8.52295 28.856 12.2411 28.7798 17.3636 26.9762Z" fill="#1EA4D0"/>
<path d="M4.47455 10.0558C4.35633 10.5006 4.36244 11.0091 4.53775 11.5939L7.39971 21.0444C7.39971 19.5167 7.48736 18.0733 7.63616 16.7227C7.73809 15.6294 7.88281 14.5361 8.08462 13.7105C7.5424 11.3283 7.24886 9.05314 7.49755 7.34216C6.68422 7.91661 6.00338 8.41487 5.46523 8.81636C5.06162 9.13962 4.60298 9.58229 4.47659 10.0579" fill="#009CCD"/>
<path d="M10.8934 5.03204C9.59495 5.88238 8.45547 6.66272 7.49741 7.34011C7.43625 7.76014 7.40771 8.21722 7.40771 8.69901C7.40771 10.1773 7.67475 11.913 8.08447 13.7063C8.31482 12.4875 8.58389 11.3797 8.86316 10.3894V10.3832C9.62961 7.67778 10.4674 5.88033 10.7732 5.2647V5.26059C10.7874 5.23588 10.7997 5.21323 10.8099 5.19264C10.8099 5.19264 10.8099 5.19058 10.8099 5.18852C10.818 5.17617 10.8241 5.16176 10.8282 5.15146C10.8282 5.15146 10.8282 5.15146 10.8282 5.1494C10.8282 5.1494 10.8302 5.14528 10.8302 5.14323C10.8302 5.14323 10.8343 5.13293 10.8384 5.12881C10.8445 5.11852 10.8486 5.11028 10.8527 5.10205C10.8629 5.08352 10.871 5.06705 10.8771 5.05675C10.8771 5.05675 10.8771 5.05469 10.8771 5.05263C10.8771 5.05263 10.8771 5.04851 10.8771 5.04646V5.04234C10.8771 5.04234 10.8792 5.04028 10.8792 5.03822C10.8792 5.03822 10.8792 5.0341 10.8832 5.0341" fill="#56A5CB"/>
<path d="M10.7713 5.2647C10.4635 5.87827 9.62574 7.67778 8.86133 10.3832C9.62778 7.67778 10.4656 5.88033 10.7713 5.2647ZM10.808 5.19058C10.7978 5.21323 10.7856 5.23588 10.7734 5.25853C10.7856 5.23382 10.7978 5.21117 10.808 5.19058ZM10.8284 5.1494C10.8223 5.1597 10.8162 5.17411 10.8101 5.18646C10.8182 5.17411 10.8243 5.1597 10.8284 5.1494ZM10.8325 5.13911C10.8325 5.13911 10.8325 5.14323 10.8305 5.14528C10.8305 5.14528 10.8325 5.14117 10.8325 5.13911ZM10.8406 5.1247C10.8406 5.1247 10.8345 5.13293 10.8325 5.13911C10.8345 5.13293 10.8366 5.12881 10.8406 5.1247ZM10.8549 5.09793C10.8549 5.09793 10.8468 5.11234 10.8406 5.12058C10.8447 5.11234 10.8508 5.10411 10.8549 5.09793ZM10.8835 5.04234C10.8835 5.04234 10.8835 5.0444 10.8835 5.04646C10.8835 5.04646 10.8835 5.0444 10.8835 5.04234ZM10.8855 5.03616C10.8855 5.03616 10.8855 5.03822 10.8835 5.04028C10.8835 5.04028 10.8835 5.03822 10.8855 5.03616ZM10.8896 5.03204C10.8896 5.03204 10.8896 5.0341 10.8855 5.03616C10.8855 5.03616 10.8855 5.03204 10.8896 5.03204Z" fill="#1EA4D0"/>
<path d="M28.9706 11.2253C28.6485 10.9 28.2082 10.6488 27.6212 10.5109L18.0874 8.28723C19.3961 9.04904 20.5906 9.84996 21.675 10.655C22.5618 11.2892 23.4261 11.9624 24.0335 12.5533C26.3451 13.2678 28.4426 14.149 29.786 15.2238C29.6983 14.2273 29.6127 13.381 29.5393 12.7098C29.4639 12.1972 29.3131 11.5733 28.9686 11.2253" fill="#009CCD"/>
<path d="M24.0376 12.5533C28.145 16.1338 30.0652 19.3416 30.0693 19.3478C29.9898 17.7892 29.8899 16.3994 29.7901 15.2217C28.4467 14.149 26.3492 13.2657 24.0376 12.5513" fill="#56A5CB"/>
<path d="M24.0352 12.5533L24.1452 12.6604C25.8983 14.429 30.179 29.2225 30.179 29.2225C30.287 25.5226 30.2116 22.1562 30.0689 19.3478C30.0057 19.2408 28.0794 16.0762 24.0372 12.5533" fill="#76B5D5"/>
<path d="M19.3042 0C16.0753 1.75421 13.2276 3.50431 10.8936 5.03204C10.8936 5.03204 10.8936 5.0341 10.8895 5.03616C10.8895 5.03616 10.8895 5.03822 10.8875 5.04028V5.0444C10.8875 5.0444 10.8854 5.04645 10.8854 5.04851V5.05057C10.8854 5.05057 10.8854 5.05263 10.8854 5.05469C10.8793 5.06499 10.8712 5.08146 10.861 5.09999C10.8569 5.10616 10.8528 5.1144 10.8467 5.12264C10.8467 5.12264 10.8406 5.13499 10.8385 5.13911C10.8385 5.13911 10.8385 5.14322 10.8365 5.14528C10.8365 5.14528 10.8365 5.14528 10.8365 5.14734C10.8304 5.15764 10.8243 5.17205 10.8182 5.1844V5.18852C10.808 5.21117 10.7957 5.23382 10.7835 5.25647V5.26058C10.4757 5.87415 9.63791 7.67366 8.87145 10.3791V10.3853C8.59219 11.3756 8.32312 12.4875 8.09277 13.7063C8.10704 13.6549 8.11927 13.6034 8.1315 13.556C8.76138 11.1409 19.3042 0 19.3042 0Z" fill="#76B5D5"/>
</g>
<defs>
<clipPath id="clip0_164764_45287">
<rect width="103" height="32" fill="white"/>
</clipPath>
</defs>
</svg>
